<mxfile modified="2023-12-29T21:40:28.527Z" host="app.diagrams.net" agent="Mozilla/5.0 (Macintosh; Intel Mac OS X 10_15_7) AppleWebKit/537.36 (KHTML, like Gecko) Chrome/120.0.0.0 Safari/537.36" etag="4zdSD6MOZq4VOWJd8U7b" version="22.1.16" type="google">
  <diagram id="KH8mkkUgR1tYVXHdWoPw" name="Page-1">
    <mxGraphModel grid="1" page="1" gridSize="10" guides="1" tooltips="1" connect="1" arrows="1" fold="1" pageScale="1" pageWidth="827" pageHeight="1169" math="0" shadow="0">
      <root>
        <mxCell id="0" />
        <mxCell id="1" parent="0" />
        <mxCell id="go-kn7gdVx5rD23F8DDE-1" value="" style="rounded=1;whiteSpace=wrap;html=1;strokeColor=#666666;fillColor=#f5f5f5;fontColor=#333333;arcSize=3;" vertex="1" parent="1">
          <mxGeometry x="120" y="70" width="320" height="350" as="geometry" />
        </mxCell>
        <mxCell id="go-kn7gdVx5rD23F8DDE-3" value="Offloading decision" style="rounded=0;whiteSpace=wrap;html=1;strokeColor=#82b366;fillColor=#d5e8d4;" vertex="1" parent="1">
          <mxGeometry x="280" y="100" width="150" height="40" as="geometry" />
        </mxCell>
        <mxCell id="go-kn7gdVx5rD23F8DDE-4" value="Workload" style="rounded=0;whiteSpace=wrap;html=1;strokeColor=#6c8ebf;fillColor=#dae8fc;" vertex="1" parent="1">
          <mxGeometry x="130" y="100" width="150" height="40" as="geometry" />
        </mxCell>
        <mxCell id="go-kn7gdVx5rD23F8DDE-5" value="&lt;b&gt;&lt;font style=&quot;font-size: 18px&quot;&gt;MEMORY 0&lt;/font&gt;&lt;/b&gt;" style="text;html=1;resizable=0;points=[];autosize=1;align=left;verticalAlign=top;spacingTop=-4;fontColor=#000000;" vertex="1" parent="1">
          <mxGeometry x="245" y="33" width="110" height="20" as="geometry" />
        </mxCell>
        <mxCell id="go-kn7gdVx5rD23F8DDE-6" value="input data" style="text;html=1;strokeColor=none;fillColor=none;align=center;verticalAlign=middle;whiteSpace=wrap;rounded=0;fontColor=#000000;" vertex="1" parent="1">
          <mxGeometry x="185" y="80" width="55" height="20" as="geometry" />
        </mxCell>
        <mxCell id="go-kn7gdVx5rD23F8DDE-7" value="output data" style="text;html=1;strokeColor=none;fillColor=none;align=center;verticalAlign=middle;whiteSpace=wrap;rounded=0;fontColor=#000000;" vertex="1" parent="1">
          <mxGeometry x="320" y="80" width="63" height="20" as="geometry" />
        </mxCell>
        <mxCell id="go-kn7gdVx5rD23F8DDE-9" value="Offloading decision" style="rounded=0;whiteSpace=wrap;html=1;strokeColor=#82b366;fillColor=#d5e8d4;" vertex="1" parent="1">
          <mxGeometry x="280" y="140" width="150" height="40" as="geometry" />
        </mxCell>
        <mxCell id="go-kn7gdVx5rD23F8DDE-10" value="Workload" style="rounded=0;whiteSpace=wrap;html=1;strokeColor=#6c8ebf;fillColor=#dae8fc;" vertex="1" parent="1">
          <mxGeometry x="130" y="140" width="150" height="40" as="geometry" />
        </mxCell>
        <mxCell id="go-kn7gdVx5rD23F8DDE-11" value="Offloading decision" style="rounded=0;whiteSpace=wrap;html=1;strokeColor=#82b366;fillColor=#d5e8d4;" vertex="1" parent="1">
          <mxGeometry x="280" y="180" width="150" height="40" as="geometry" />
        </mxCell>
        <mxCell id="go-kn7gdVx5rD23F8DDE-12" value="Workload" style="rounded=0;whiteSpace=wrap;html=1;strokeColor=#6c8ebf;fillColor=#dae8fc;" vertex="1" parent="1">
          <mxGeometry x="130" y="180" width="150" height="40" as="geometry" />
        </mxCell>
        <mxCell id="go-kn7gdVx5rD23F8DDE-13" value="Offloading decision" style="rounded=0;whiteSpace=wrap;html=1;strokeColor=#82b366;fillColor=#d5e8d4;" vertex="1" parent="1">
          <mxGeometry x="280" y="220" width="150" height="40" as="geometry" />
        </mxCell>
        <mxCell id="go-kn7gdVx5rD23F8DDE-14" value="Workload" style="rounded=0;whiteSpace=wrap;html=1;strokeColor=#6c8ebf;fillColor=#dae8fc;" vertex="1" parent="1">
          <mxGeometry x="130" y="220" width="150" height="40" as="geometry" />
        </mxCell>
        <mxCell id="go-kn7gdVx5rD23F8DDE-19" value="Offloading decision" style="rounded=0;whiteSpace=wrap;html=1;strokeColor=#82b366;fillColor=#d5e8d4;" vertex="1" parent="1">
          <mxGeometry x="280" y="330" width="150" height="40" as="geometry" />
        </mxCell>
        <mxCell id="go-kn7gdVx5rD23F8DDE-20" value="Workload" style="rounded=0;whiteSpace=wrap;html=1;strokeColor=#6c8ebf;fillColor=#dae8fc;" vertex="1" parent="1">
          <mxGeometry x="130" y="330" width="150" height="40" as="geometry" />
        </mxCell>
        <mxCell id="go-kn7gdVx5rD23F8DDE-21" value="Offloading decision" style="rounded=0;whiteSpace=wrap;html=1;strokeColor=#82b366;fillColor=#d5e8d4;" vertex="1" parent="1">
          <mxGeometry x="280" y="370" width="150" height="40" as="geometry" />
        </mxCell>
        <mxCell id="go-kn7gdVx5rD23F8DDE-22" value="Workload" style="rounded=0;whiteSpace=wrap;html=1;strokeColor=#6c8ebf;fillColor=#dae8fc;" vertex="1" parent="1">
          <mxGeometry x="130" y="370" width="150" height="40" as="geometry" />
        </mxCell>
        <mxCell id="go-kn7gdVx5rD23F8DDE-23" value="&lt;font style=&quot;font-size: 25px&quot;&gt;...&lt;/font&gt;" style="text;html=1;strokeColor=none;fillColor=none;align=center;verticalAlign=middle;whiteSpace=wrap;rounded=0;fontColor=#000000;rotation=-90;" vertex="1" parent="1">
          <mxGeometry x="260" y="285" width="40" height="20" as="geometry" />
        </mxCell>
        <mxCell id="go-kn7gdVx5rD23F8DDE-24" value="[batch_size rows x 18 columns]" style="text;html=1;resizable=0;points=[];autosize=1;align=left;verticalAlign=top;spacingTop=-4;fontColor=#000000;" vertex="1" parent="1">
          <mxGeometry x="620" y="340" width="180" height="20" as="geometry" />
        </mxCell>
        <mxCell id="go-kn7gdVx5rD23F8DDE-25" value="" style="endArrow=classic;html=1;strokeColor=#FFE599;fontColor=#000000;fillColor=#fff2cc;strokeWidth=2;" edge="1" parent="1">
          <mxGeometry width="50" height="50" relative="1" as="geometry">
            <mxPoint x="450" y="390" as="sourcePoint" />
            <mxPoint x="510" y="390" as="targetPoint" />
          </mxGeometry>
        </mxCell>
        <mxCell id="go-kn7gdVx5rD23F8DDE-26" value="" style="endArrow=classic;html=1;strokeColor=#FFE599;fontColor=#000000;fillColor=#fff2cc;strokeWidth=2;" edge="1" parent="1">
          <mxGeometry width="50" height="50" relative="1" as="geometry">
            <mxPoint x="450" y="240" as="sourcePoint" />
            <mxPoint x="510" y="240" as="targetPoint" />
          </mxGeometry>
        </mxCell>
        <mxCell id="go-kn7gdVx5rD23F8DDE-27" value="" style="endArrow=classic;html=1;strokeColor=#FFE599;fontColor=#000000;fillColor=#fff2cc;strokeWidth=2;" edge="1" parent="1">
          <mxGeometry width="50" height="50" relative="1" as="geometry">
            <mxPoint x="450" y="120" as="sourcePoint" />
            <mxPoint x="510" y="120" as="targetPoint" />
          </mxGeometry>
        </mxCell>
        <mxCell id="go-kn7gdVx5rD23F8DDE-35" value="Offloading decision" style="rounded=0;whiteSpace=wrap;html=1;strokeColor=#d79b00;fillColor=#ffe6cc;" vertex="1" parent="1">
          <mxGeometry x="620" y="175" width="80" height="40" as="geometry" />
        </mxCell>
        <mxCell id="go-kn7gdVx5rD23F8DDE-36" value="Workload" style="rounded=0;whiteSpace=wrap;html=1;strokeColor=#d6b656;fillColor=#fff2cc;" vertex="1" parent="1">
          <mxGeometry x="540" y="175" width="80" height="40" as="geometry" />
        </mxCell>
        <mxCell id="go-kn7gdVx5rD23F8DDE-37" value="Offloading decision" style="rounded=0;whiteSpace=wrap;html=1;strokeColor=#d79b00;fillColor=#ffe6cc;" vertex="1" parent="1">
          <mxGeometry x="620" y="215" width="80" height="40" as="geometry" />
        </mxCell>
        <mxCell id="go-kn7gdVx5rD23F8DDE-38" value="Workload" style="rounded=0;whiteSpace=wrap;html=1;strokeColor=#d6b656;fillColor=#fff2cc;" vertex="1" parent="1">
          <mxGeometry x="540" y="215" width="80" height="40" as="geometry" />
        </mxCell>
        <mxCell id="go-kn7gdVx5rD23F8DDE-39" value="Offloading decision" style="rounded=0;whiteSpace=wrap;html=1;strokeColor=#d79b00;fillColor=#ffe6cc;" vertex="1" parent="1">
          <mxGeometry x="620" y="255" width="80" height="40" as="geometry" />
        </mxCell>
        <mxCell id="go-kn7gdVx5rD23F8DDE-40" value="Workload" style="rounded=0;whiteSpace=wrap;html=1;strokeColor=#d6b656;fillColor=#fff2cc;" vertex="1" parent="1">
          <mxGeometry x="540" y="255" width="80" height="40" as="geometry" />
        </mxCell>
        <mxCell id="go-kn7gdVx5rD23F8DDE-41" value="Offloading decision" style="rounded=0;whiteSpace=wrap;html=1;strokeColor=#d79b00;fillColor=#ffe6cc;" vertex="1" parent="1">
          <mxGeometry x="620" y="295" width="80" height="40" as="geometry" />
        </mxCell>
        <mxCell id="go-kn7gdVx5rD23F8DDE-42" value="Workload" style="rounded=0;whiteSpace=wrap;html=1;strokeColor=#d6b656;fillColor=#FFF2CC;" vertex="1" parent="1">
          <mxGeometry x="540" y="295" width="80" height="40" as="geometry" />
        </mxCell>
        <mxCell id="go-kn7gdVx5rD23F8DDE-46" value="&lt;b&gt;&lt;font style=&quot;font-size: 16px&quot;&gt;Random batches&lt;/font&gt;&lt;/b&gt;" style="text;html=1;resizable=0;points=[];autosize=1;align=left;verticalAlign=top;spacingTop=-4;fontColor=#000000;" vertex="1" parent="1">
          <mxGeometry x="565" y="74" width="140" height="20" as="geometry" />
        </mxCell>
        <mxCell id="go-kn7gdVx5rD23F8DDE-57" style="rounded=0;orthogonalLoop=1;jettySize=auto;html=1;exitX=1;exitY=0.5;exitDx=0;exitDy=0;entryX=0;entryY=0.5;entryDx=0;entryDy=0;strokeColor=#6c8ebf;strokeWidth=1;fontColor=#000000;endArrow=none;endFill=0;fillColor=#dae8fc;" edge="1" parent="1" source="go-kn7gdVx5rD23F8DDE-47" target="go-kn7gdVx5rD23F8DDE-50">
          <mxGeometry relative="1" as="geometry" />
        </mxCell>
        <mxCell id="go-kn7gdVx5rD23F8DDE-58" style="edgeStyle=none;rounded=0;orthogonalLoop=1;jettySize=auto;html=1;exitX=1;exitY=0.5;exitDx=0;exitDy=0;entryX=0;entryY=0.5;entryDx=0;entryDy=0;endArrow=none;endFill=0;strokeColor=#6c8ebf;strokeWidth=1;fontColor=#000000;fillColor=#dae8fc;" edge="1" parent="1" source="go-kn7gdVx5rD23F8DDE-47" target="go-kn7gdVx5rD23F8DDE-51">
          <mxGeometry relative="1" as="geometry" />
        </mxCell>
        <mxCell id="go-kn7gdVx5rD23F8DDE-59" style="edgeStyle=none;rounded=0;orthogonalLoop=1;jettySize=auto;html=1;exitX=1;exitY=0.5;exitDx=0;exitDy=0;entryX=0;entryY=0.5;entryDx=0;entryDy=0;endArrow=none;endFill=0;strokeColor=#6c8ebf;strokeWidth=1;fontColor=#000000;fillColor=#dae8fc;" edge="1" parent="1" source="go-kn7gdVx5rD23F8DDE-47" target="go-kn7gdVx5rD23F8DDE-52">
          <mxGeometry relative="1" as="geometry" />
        </mxCell>
        <mxCell id="go-kn7gdVx5rD23F8DDE-60" style="edgeStyle=none;rounded=0;orthogonalLoop=1;jettySize=auto;html=1;exitX=1;exitY=0.5;exitDx=0;exitDy=0;entryX=0;entryY=0.5;entryDx=0;entryDy=0;endArrow=none;endFill=0;strokeColor=#6c8ebf;strokeWidth=1;fontColor=#000000;fillColor=#dae8fc;" edge="1" parent="1" source="go-kn7gdVx5rD23F8DDE-47" target="go-kn7gdVx5rD23F8DDE-53">
          <mxGeometry relative="1" as="geometry" />
        </mxCell>
        <mxCell id="go-kn7gdVx5rD23F8DDE-47" value="" style="ellipse;whiteSpace=wrap;html=1;aspect=fixed;strokeColor=#6c8ebf;fillColor=#dae8fc;" vertex="1" parent="1">
          <mxGeometry x="812" y="179" width="30" height="30" as="geometry" />
        </mxCell>
        <mxCell id="go-kn7gdVx5rD23F8DDE-61" style="edgeStyle=none;rounded=0;orthogonalLoop=1;jettySize=auto;html=1;exitX=1;exitY=0.5;exitDx=0;exitDy=0;entryX=0;entryY=0.5;entryDx=0;entryDy=0;endArrow=none;endFill=0;strokeColor=#6c8ebf;strokeWidth=1;fontColor=#000000;fillColor=#dae8fc;" edge="1" parent="1" source="go-kn7gdVx5rD23F8DDE-48" target="go-kn7gdVx5rD23F8DDE-50">
          <mxGeometry relative="1" as="geometry" />
        </mxCell>
        <mxCell id="go-kn7gdVx5rD23F8DDE-62" style="edgeStyle=none;rounded=0;orthogonalLoop=1;jettySize=auto;html=1;exitX=1;exitY=0.5;exitDx=0;exitDy=0;entryX=0;entryY=0.5;entryDx=0;entryDy=0;endArrow=none;endFill=0;strokeColor=#6c8ebf;strokeWidth=1;fontColor=#000000;fillColor=#dae8fc;" edge="1" parent="1" source="go-kn7gdVx5rD23F8DDE-48" target="go-kn7gdVx5rD23F8DDE-51">
          <mxGeometry relative="1" as="geometry" />
        </mxCell>
        <mxCell id="go-kn7gdVx5rD23F8DDE-64" style="edgeStyle=none;rounded=0;orthogonalLoop=1;jettySize=auto;html=1;exitX=1;exitY=0.5;exitDx=0;exitDy=0;entryX=0;entryY=0.5;entryDx=0;entryDy=0;endArrow=none;endFill=0;strokeColor=#6c8ebf;strokeWidth=1;fontColor=#000000;fillColor=#dae8fc;" edge="1" parent="1" source="go-kn7gdVx5rD23F8DDE-48" target="go-kn7gdVx5rD23F8DDE-53">
          <mxGeometry relative="1" as="geometry" />
        </mxCell>
        <mxCell id="go-kn7gdVx5rD23F8DDE-66" style="edgeStyle=none;rounded=0;orthogonalLoop=1;jettySize=auto;html=1;exitX=1;exitY=0.5;exitDx=0;exitDy=0;entryX=0;entryY=0.5;entryDx=0;entryDy=0;endArrow=none;endFill=0;strokeColor=#6c8ebf;strokeWidth=1;fontColor=#000000;fillColor=#dae8fc;" edge="1" parent="1" source="go-kn7gdVx5rD23F8DDE-48" target="go-kn7gdVx5rD23F8DDE-52">
          <mxGeometry relative="1" as="geometry" />
        </mxCell>
        <mxCell id="go-kn7gdVx5rD23F8DDE-48" value="" style="ellipse;whiteSpace=wrap;html=1;aspect=fixed;strokeColor=#6c8ebf;fillColor=#dae8fc;" vertex="1" parent="1">
          <mxGeometry x="812" y="239" width="30" height="30" as="geometry" />
        </mxCell>
        <mxCell id="go-kn7gdVx5rD23F8DDE-63" style="edgeStyle=none;rounded=0;orthogonalLoop=1;jettySize=auto;html=1;exitX=1;exitY=0.5;exitDx=0;exitDy=0;entryX=0;entryY=0.5;entryDx=0;entryDy=0;endArrow=none;endFill=0;strokeColor=#6c8ebf;strokeWidth=1;fontColor=#000000;fillColor=#dae8fc;" edge="1" parent="1" source="go-kn7gdVx5rD23F8DDE-49" target="go-kn7gdVx5rD23F8DDE-52">
          <mxGeometry relative="1" as="geometry" />
        </mxCell>
        <mxCell id="go-kn7gdVx5rD23F8DDE-65" style="edgeStyle=none;rounded=0;orthogonalLoop=1;jettySize=auto;html=1;exitX=1;exitY=0.5;exitDx=0;exitDy=0;entryX=0;entryY=0.5;entryDx=0;entryDy=0;endArrow=none;endFill=0;strokeColor=#6c8ebf;strokeWidth=1;fontColor=#000000;fillColor=#dae8fc;" edge="1" parent="1" source="go-kn7gdVx5rD23F8DDE-49" target="go-kn7gdVx5rD23F8DDE-51">
          <mxGeometry relative="1" as="geometry" />
        </mxCell>
        <mxCell id="go-kn7gdVx5rD23F8DDE-67" style="edgeStyle=none;rounded=0;orthogonalLoop=1;jettySize=auto;html=1;exitX=1;exitY=0.5;exitDx=0;exitDy=0;entryX=0;entryY=0.5;entryDx=0;entryDy=0;endArrow=none;endFill=0;strokeColor=#6c8ebf;strokeWidth=1;fontColor=#000000;fillColor=#dae8fc;" edge="1" parent="1" source="go-kn7gdVx5rD23F8DDE-49" target="go-kn7gdVx5rD23F8DDE-50">
          <mxGeometry relative="1" as="geometry" />
        </mxCell>
        <mxCell id="go-kn7gdVx5rD23F8DDE-68" style="edgeStyle=none;rounded=0;orthogonalLoop=1;jettySize=auto;html=1;exitX=1;exitY=0.5;exitDx=0;exitDy=0;entryX=0;entryY=0.5;entryDx=0;entryDy=0;endArrow=none;endFill=0;strokeColor=#6c8ebf;strokeWidth=1;fontColor=#000000;fillColor=#dae8fc;" edge="1" parent="1" source="go-kn7gdVx5rD23F8DDE-49" target="go-kn7gdVx5rD23F8DDE-53">
          <mxGeometry relative="1" as="geometry" />
        </mxCell>
        <mxCell id="go-kn7gdVx5rD23F8DDE-49" value="" style="ellipse;whiteSpace=wrap;html=1;aspect=fixed;strokeColor=#6c8ebf;fillColor=#dae8fc;" vertex="1" parent="1">
          <mxGeometry x="812" y="294" width="30" height="30" as="geometry" />
        </mxCell>
        <mxCell id="go-kn7gdVx5rD23F8DDE-94" style="edgeStyle=none;rounded=0;orthogonalLoop=1;jettySize=auto;html=1;exitX=1;exitY=0.5;exitDx=0;exitDy=0;entryX=0;entryY=0.5;entryDx=0;entryDy=0;endArrow=none;endFill=0;strokeColor=#6c8ebf;strokeWidth=1;fontColor=#000000;fillColor=#dae8fc;" edge="1" parent="1" source="go-kn7gdVx5rD23F8DDE-50">
          <mxGeometry relative="1" as="geometry">
            <mxPoint x="945" y="334" as="targetPoint" />
          </mxGeometry>
        </mxCell>
        <mxCell id="go-kn7gdVx5rD23F8DDE-95" style="edgeStyle=none;rounded=0;orthogonalLoop=1;jettySize=auto;html=1;exitX=1;exitY=0.5;exitDx=0;exitDy=0;entryX=0;entryY=0.5;entryDx=0;entryDy=0;endArrow=none;endFill=0;strokeColor=#6c8ebf;strokeWidth=1;fontColor=#000000;fillColor=#dae8fc;" edge="1" parent="1" source="go-kn7gdVx5rD23F8DDE-50">
          <mxGeometry relative="1" as="geometry">
            <mxPoint x="945" y="279" as="targetPoint" />
          </mxGeometry>
        </mxCell>
        <mxCell id="go-kn7gdVx5rD23F8DDE-96" style="edgeStyle=none;rounded=0;orthogonalLoop=1;jettySize=auto;html=1;exitX=1;exitY=0.5;exitDx=0;exitDy=0;entryX=0;entryY=0.5;entryDx=0;entryDy=0;endArrow=none;endFill=0;strokeColor=#6c8ebf;strokeWidth=1;fontColor=#000000;fillColor=#dae8fc;" edge="1" parent="1" source="go-kn7gdVx5rD23F8DDE-50">
          <mxGeometry relative="1" as="geometry">
            <mxPoint x="945" y="224" as="targetPoint" />
          </mxGeometry>
        </mxCell>
        <mxCell id="go-kn7gdVx5rD23F8DDE-97" style="edgeStyle=none;rounded=0;orthogonalLoop=1;jettySize=auto;html=1;exitX=1;exitY=0.5;exitDx=0;exitDy=0;entryX=0;entryY=0.5;entryDx=0;entryDy=0;endArrow=none;endFill=0;strokeColor=#6c8ebf;strokeWidth=1;fontColor=#000000;fillColor=#dae8fc;" edge="1" parent="1" source="go-kn7gdVx5rD23F8DDE-50">
          <mxGeometry relative="1" as="geometry">
            <mxPoint x="945" y="164" as="targetPoint" />
          </mxGeometry>
        </mxCell>
        <mxCell id="go-kn7gdVx5rD23F8DDE-50" value="" style="ellipse;whiteSpace=wrap;html=1;aspect=fixed;strokeColor=#6c8ebf;fillColor=#dae8fc;" vertex="1" parent="1">
          <mxGeometry x="877" y="149" width="30" height="30" as="geometry" />
        </mxCell>
        <mxCell id="go-kn7gdVx5rD23F8DDE-103" style="edgeStyle=none;rounded=0;orthogonalLoop=1;jettySize=auto;html=1;exitX=1;exitY=0.5;exitDx=0;exitDy=0;entryX=0;entryY=0.5;entryDx=0;entryDy=0;endArrow=none;endFill=0;strokeColor=#6c8ebf;strokeWidth=1;fontColor=#000000;fillColor=#dae8fc;" edge="1" parent="1" source="go-kn7gdVx5rD23F8DDE-51">
          <mxGeometry relative="1" as="geometry">
            <mxPoint x="945" y="224" as="targetPoint" />
          </mxGeometry>
        </mxCell>
        <mxCell id="go-kn7gdVx5rD23F8DDE-104" style="edgeStyle=none;rounded=0;orthogonalLoop=1;jettySize=auto;html=1;exitX=1;exitY=0.5;exitDx=0;exitDy=0;entryX=0;entryY=0.5;entryDx=0;entryDy=0;endArrow=none;endFill=0;strokeColor=#6c8ebf;strokeWidth=1;fontColor=#000000;fillColor=#dae8fc;" edge="1" parent="1" source="go-kn7gdVx5rD23F8DDE-51">
          <mxGeometry relative="1" as="geometry">
            <mxPoint x="945" y="164" as="targetPoint" />
          </mxGeometry>
        </mxCell>
        <mxCell id="go-kn7gdVx5rD23F8DDE-105" style="edgeStyle=none;rounded=0;orthogonalLoop=1;jettySize=auto;html=1;exitX=1;exitY=0.5;exitDx=0;exitDy=0;entryX=0;entryY=0.5;entryDx=0;entryDy=0;endArrow=none;endFill=0;strokeColor=#6c8ebf;strokeWidth=1;fontColor=#000000;fillColor=#dae8fc;" edge="1" parent="1" source="go-kn7gdVx5rD23F8DDE-51">
          <mxGeometry relative="1" as="geometry">
            <mxPoint x="945" y="279" as="targetPoint" />
          </mxGeometry>
        </mxCell>
        <mxCell id="go-kn7gdVx5rD23F8DDE-106" style="edgeStyle=none;rounded=0;orthogonalLoop=1;jettySize=auto;html=1;exitX=1;exitY=0.5;exitDx=0;exitDy=0;entryX=0;entryY=0.5;entryDx=0;entryDy=0;endArrow=none;endFill=0;strokeColor=#6c8ebf;strokeWidth=1;fontColor=#000000;fillColor=#dae8fc;" edge="1" parent="1" source="go-kn7gdVx5rD23F8DDE-51">
          <mxGeometry relative="1" as="geometry">
            <mxPoint x="945" y="334" as="targetPoint" />
          </mxGeometry>
        </mxCell>
        <mxCell id="go-kn7gdVx5rD23F8DDE-51" value="" style="ellipse;whiteSpace=wrap;html=1;aspect=fixed;strokeColor=#6c8ebf;fillColor=#dae8fc;" vertex="1" parent="1">
          <mxGeometry x="877" y="209" width="30" height="30" as="geometry" />
        </mxCell>
        <mxCell id="go-kn7gdVx5rD23F8DDE-108" style="edgeStyle=none;rounded=0;orthogonalLoop=1;jettySize=auto;html=1;exitX=1;exitY=0.5;exitDx=0;exitDy=0;entryX=0;entryY=0.5;entryDx=0;entryDy=0;endArrow=none;endFill=0;strokeColor=#6c8ebf;strokeWidth=1;fontColor=#000000;fillColor=#dae8fc;" edge="1" parent="1" source="go-kn7gdVx5rD23F8DDE-52">
          <mxGeometry relative="1" as="geometry">
            <mxPoint x="945" y="334" as="targetPoint" />
          </mxGeometry>
        </mxCell>
        <mxCell id="go-kn7gdVx5rD23F8DDE-109" style="edgeStyle=none;rounded=0;orthogonalLoop=1;jettySize=auto;html=1;exitX=1;exitY=0.5;exitDx=0;exitDy=0;entryX=0;entryY=0.5;entryDx=0;entryDy=0;endArrow=none;endFill=0;strokeColor=#6c8ebf;strokeWidth=1;fontColor=#000000;fillColor=#dae8fc;" edge="1" parent="1" source="go-kn7gdVx5rD23F8DDE-52">
          <mxGeometry relative="1" as="geometry">
            <mxPoint x="945" y="224" as="targetPoint" />
          </mxGeometry>
        </mxCell>
        <mxCell id="go-kn7gdVx5rD23F8DDE-52" value="" style="ellipse;whiteSpace=wrap;html=1;aspect=fixed;strokeColor=#6c8ebf;fillColor=#dae8fc;" vertex="1" parent="1">
          <mxGeometry x="877" y="264" width="30" height="30" as="geometry" />
        </mxCell>
        <mxCell id="go-kn7gdVx5rD23F8DDE-98" style="edgeStyle=none;rounded=0;orthogonalLoop=1;jettySize=auto;html=1;exitX=1;exitY=0.5;exitDx=0;exitDy=0;entryX=0;entryY=0.5;entryDx=0;entryDy=0;endArrow=none;endFill=0;strokeColor=#6c8ebf;strokeWidth=1;fontColor=#000000;fillColor=#dae8fc;" edge="1" parent="1" source="go-kn7gdVx5rD23F8DDE-53">
          <mxGeometry relative="1" as="geometry">
            <mxPoint x="945" y="164" as="targetPoint" />
          </mxGeometry>
        </mxCell>
        <mxCell id="go-kn7gdVx5rD23F8DDE-99" style="edgeStyle=none;rounded=0;orthogonalLoop=1;jettySize=auto;html=1;exitX=1;exitY=0.5;exitDx=0;exitDy=0;entryX=0;entryY=0.5;entryDx=0;entryDy=0;endArrow=none;endFill=0;strokeColor=#6c8ebf;strokeWidth=1;fontColor=#000000;fillColor=#dae8fc;" edge="1" parent="1" source="go-kn7gdVx5rD23F8DDE-53">
          <mxGeometry relative="1" as="geometry">
            <mxPoint x="945" y="224" as="targetPoint" />
          </mxGeometry>
        </mxCell>
        <mxCell id="go-kn7gdVx5rD23F8DDE-100" style="edgeStyle=none;rounded=0;orthogonalLoop=1;jettySize=auto;html=1;exitX=1;exitY=0.5;exitDx=0;exitDy=0;entryX=0;entryY=0.5;entryDx=0;entryDy=0;endArrow=none;endFill=0;strokeColor=#6c8ebf;strokeWidth=1;fontColor=#000000;fillColor=#dae8fc;" edge="1" parent="1" source="go-kn7gdVx5rD23F8DDE-53">
          <mxGeometry relative="1" as="geometry">
            <mxPoint x="945" y="279" as="targetPoint" />
          </mxGeometry>
        </mxCell>
        <mxCell id="go-kn7gdVx5rD23F8DDE-101" style="edgeStyle=none;rounded=0;orthogonalLoop=1;jettySize=auto;html=1;exitX=1;exitY=0.5;exitDx=0;exitDy=0;entryX=0;entryY=0.5;entryDx=0;entryDy=0;endArrow=none;endFill=0;strokeColor=#6c8ebf;strokeWidth=1;fontColor=#000000;fillColor=#dae8fc;" edge="1" parent="1" source="go-kn7gdVx5rD23F8DDE-53">
          <mxGeometry relative="1" as="geometry">
            <mxPoint x="945" y="334" as="targetPoint" />
          </mxGeometry>
        </mxCell>
        <mxCell id="go-kn7gdVx5rD23F8DDE-53" value="" style="ellipse;whiteSpace=wrap;html=1;aspect=fixed;strokeColor=#6c8ebf;fillColor=#dae8fc;" vertex="1" parent="1">
          <mxGeometry x="877" y="319" width="30" height="30" as="geometry" />
        </mxCell>
        <mxCell id="go-kn7gdVx5rD23F8DDE-102" style="edgeStyle=none;rounded=0;orthogonalLoop=1;jettySize=auto;html=1;exitX=0;exitY=0.5;exitDx=0;exitDy=0;entryX=1;entryY=0.5;entryDx=0;entryDy=0;endArrow=none;endFill=0;strokeColor=#6c8ebf;strokeWidth=1;fontColor=#000000;fillColor=#dae8fc;" edge="1" parent="1" target="go-kn7gdVx5rD23F8DDE-52">
          <mxGeometry relative="1" as="geometry">
            <mxPoint x="945" y="279" as="sourcePoint" />
          </mxGeometry>
        </mxCell>
        <mxCell id="go-kn7gdVx5rD23F8DDE-194" style="rounded=0;orthogonalLoop=1;jettySize=auto;html=1;exitX=1;exitY=0.5;exitDx=0;exitDy=0;entryX=0;entryY=0.5;entryDx=0;entryDy=0;strokeColor=#6c8ebf;strokeWidth=1;fontColor=#000000;endArrow=none;endFill=0;fillColor=#dae8fc;" edge="1" parent="1" source="go-kn7gdVx5rD23F8DDE-198" target="go-kn7gdVx5rD23F8DDE-213">
          <mxGeometry relative="1" as="geometry" />
        </mxCell>
        <mxCell id="go-kn7gdVx5rD23F8DDE-195" style="edgeStyle=none;rounded=0;orthogonalLoop=1;jettySize=auto;html=1;exitX=1;exitY=0.5;exitDx=0;exitDy=0;entryX=0;entryY=0.5;entryDx=0;entryDy=0;endArrow=none;endFill=0;strokeColor=#6c8ebf;strokeWidth=1;fontColor=#000000;fillColor=#dae8fc;" edge="1" parent="1" source="go-kn7gdVx5rD23F8DDE-198" target="go-kn7gdVx5rD23F8DDE-218">
          <mxGeometry relative="1" as="geometry" />
        </mxCell>
        <mxCell id="go-kn7gdVx5rD23F8DDE-196" style="edgeStyle=none;rounded=0;orthogonalLoop=1;jettySize=auto;html=1;exitX=1;exitY=0.5;exitDx=0;exitDy=0;entryX=0;entryY=0.5;entryDx=0;entryDy=0;endArrow=none;endFill=0;strokeColor=#6c8ebf;strokeWidth=1;fontColor=#000000;fillColor=#dae8fc;" edge="1" parent="1" source="go-kn7gdVx5rD23F8DDE-198" target="go-kn7gdVx5rD23F8DDE-221">
          <mxGeometry relative="1" as="geometry" />
        </mxCell>
        <mxCell id="go-kn7gdVx5rD23F8DDE-197" style="edgeStyle=none;rounded=0;orthogonalLoop=1;jettySize=auto;html=1;exitX=1;exitY=0.5;exitDx=0;exitDy=0;entryX=0;entryY=0.5;entryDx=0;entryDy=0;endArrow=none;endFill=0;strokeColor=#6c8ebf;strokeWidth=1;fontColor=#000000;fillColor=#dae8fc;" edge="1" parent="1" source="go-kn7gdVx5rD23F8DDE-198" target="go-kn7gdVx5rD23F8DDE-226">
          <mxGeometry relative="1" as="geometry" />
        </mxCell>
        <mxCell id="go-kn7gdVx5rD23F8DDE-198" value="" style="ellipse;whiteSpace=wrap;html=1;aspect=fixed;strokeColor=#6c8ebf;fillColor=#dae8fc;direction=west;" vertex="1" parent="1">
          <mxGeometry x="1090.5" y="187.5" width="30" height="30" as="geometry" />
        </mxCell>
        <mxCell id="go-kn7gdVx5rD23F8DDE-199" style="edgeStyle=none;rounded=0;orthogonalLoop=1;jettySize=auto;html=1;exitX=1;exitY=0.5;exitDx=0;exitDy=0;entryX=0;entryY=0.5;entryDx=0;entryDy=0;endArrow=none;endFill=0;strokeColor=#6c8ebf;strokeWidth=1;fontColor=#000000;fillColor=#dae8fc;" edge="1" parent="1" source="go-kn7gdVx5rD23F8DDE-203" target="go-kn7gdVx5rD23F8DDE-213">
          <mxGeometry relative="1" as="geometry" />
        </mxCell>
        <mxCell id="go-kn7gdVx5rD23F8DDE-200" style="edgeStyle=none;rounded=0;orthogonalLoop=1;jettySize=auto;html=1;exitX=1;exitY=0.5;exitDx=0;exitDy=0;entryX=0;entryY=0.5;entryDx=0;entryDy=0;endArrow=none;endFill=0;strokeColor=#6c8ebf;strokeWidth=1;fontColor=#000000;fillColor=#dae8fc;" edge="1" parent="1" source="go-kn7gdVx5rD23F8DDE-203" target="go-kn7gdVx5rD23F8DDE-218">
          <mxGeometry relative="1" as="geometry" />
        </mxCell>
        <mxCell id="go-kn7gdVx5rD23F8DDE-201" style="edgeStyle=none;rounded=0;orthogonalLoop=1;jettySize=auto;html=1;exitX=1;exitY=0.5;exitDx=0;exitDy=0;entryX=0;entryY=0.5;entryDx=0;entryDy=0;endArrow=none;endFill=0;strokeColor=#6c8ebf;strokeWidth=1;fontColor=#000000;fillColor=#dae8fc;" edge="1" parent="1" source="go-kn7gdVx5rD23F8DDE-203" target="go-kn7gdVx5rD23F8DDE-226">
          <mxGeometry relative="1" as="geometry" />
        </mxCell>
        <mxCell id="go-kn7gdVx5rD23F8DDE-202" style="edgeStyle=none;rounded=0;orthogonalLoop=1;jettySize=auto;html=1;exitX=1;exitY=0.5;exitDx=0;exitDy=0;entryX=0;entryY=0.5;entryDx=0;entryDy=0;endArrow=none;endFill=0;strokeColor=#6c8ebf;strokeWidth=1;fontColor=#000000;fillColor=#dae8fc;" edge="1" parent="1" source="go-kn7gdVx5rD23F8DDE-203" target="go-kn7gdVx5rD23F8DDE-221">
          <mxGeometry relative="1" as="geometry" />
        </mxCell>
        <mxCell id="go-kn7gdVx5rD23F8DDE-203" value="" style="ellipse;whiteSpace=wrap;html=1;aspect=fixed;strokeColor=#6c8ebf;fillColor=#dae8fc;direction=west;" vertex="1" parent="1">
          <mxGeometry x="1092" y="245" width="30" height="30" as="geometry" />
        </mxCell>
        <mxCell id="go-kn7gdVx5rD23F8DDE-204" style="edgeStyle=none;rounded=0;orthogonalLoop=1;jettySize=auto;html=1;exitX=1;exitY=0.5;exitDx=0;exitDy=0;entryX=0;entryY=0.5;entryDx=0;entryDy=0;endArrow=none;endFill=0;strokeColor=#6c8ebf;strokeWidth=1;fontColor=#000000;fillColor=#dae8fc;" edge="1" parent="1" source="go-kn7gdVx5rD23F8DDE-208" target="go-kn7gdVx5rD23F8DDE-221">
          <mxGeometry relative="1" as="geometry" />
        </mxCell>
        <mxCell id="go-kn7gdVx5rD23F8DDE-205" style="edgeStyle=none;rounded=0;orthogonalLoop=1;jettySize=auto;html=1;exitX=1;exitY=0.5;exitDx=0;exitDy=0;entryX=0;entryY=0.5;entryDx=0;entryDy=0;endArrow=none;endFill=0;strokeColor=#6c8ebf;strokeWidth=1;fontColor=#000000;fillColor=#dae8fc;" edge="1" parent="1" source="go-kn7gdVx5rD23F8DDE-208" target="go-kn7gdVx5rD23F8DDE-218">
          <mxGeometry relative="1" as="geometry" />
        </mxCell>
        <mxCell id="go-kn7gdVx5rD23F8DDE-206" style="edgeStyle=none;rounded=0;orthogonalLoop=1;jettySize=auto;html=1;exitX=1;exitY=0.5;exitDx=0;exitDy=0;entryX=0;entryY=0.5;entryDx=0;entryDy=0;endArrow=none;endFill=0;strokeColor=#6c8ebf;strokeWidth=1;fontColor=#000000;fillColor=#dae8fc;" edge="1" parent="1" source="go-kn7gdVx5rD23F8DDE-208" target="go-kn7gdVx5rD23F8DDE-213">
          <mxGeometry relative="1" as="geometry" />
        </mxCell>
        <mxCell id="go-kn7gdVx5rD23F8DDE-207" style="edgeStyle=none;rounded=0;orthogonalLoop=1;jettySize=auto;html=1;exitX=1;exitY=0.5;exitDx=0;exitDy=0;entryX=0;entryY=0.5;entryDx=0;entryDy=0;endArrow=none;endFill=0;strokeColor=#6c8ebf;strokeWidth=1;fontColor=#000000;fillColor=#dae8fc;" edge="1" parent="1" source="go-kn7gdVx5rD23F8DDE-208" target="go-kn7gdVx5rD23F8DDE-226">
          <mxGeometry relative="1" as="geometry" />
        </mxCell>
        <mxCell id="go-kn7gdVx5rD23F8DDE-208" value="" style="ellipse;whiteSpace=wrap;html=1;aspect=fixed;strokeColor=#6c8ebf;fillColor=#dae8fc;direction=west;" vertex="1" parent="1">
          <mxGeometry x="1092" y="302.5" width="30" height="30" as="geometry" />
        </mxCell>
        <mxCell id="go-kn7gdVx5rD23F8DDE-209" style="edgeStyle=none;rounded=0;orthogonalLoop=1;jettySize=auto;html=1;exitX=1;exitY=0.5;exitDx=0;exitDy=0;entryX=0;entryY=0.5;entryDx=0;entryDy=0;endArrow=none;endFill=0;strokeColor=#6c8ebf;strokeWidth=1;fontColor=#000000;fillColor=#dae8fc;" edge="1" parent="1" source="go-kn7gdVx5rD23F8DDE-213">
          <mxGeometry relative="1" as="geometry">
            <mxPoint x="987.5" y="335" as="targetPoint" />
          </mxGeometry>
        </mxCell>
        <mxCell id="go-kn7gdVx5rD23F8DDE-210" style="edgeStyle=none;rounded=0;orthogonalLoop=1;jettySize=auto;html=1;exitX=1;exitY=0.5;exitDx=0;exitDy=0;entryX=0;entryY=0.5;entryDx=0;entryDy=0;endArrow=none;endFill=0;strokeColor=#6c8ebf;strokeWidth=1;fontColor=#000000;fillColor=#dae8fc;" edge="1" parent="1" source="go-kn7gdVx5rD23F8DDE-213">
          <mxGeometry relative="1" as="geometry">
            <mxPoint x="987.5" y="280" as="targetPoint" />
          </mxGeometry>
        </mxCell>
        <mxCell id="go-kn7gdVx5rD23F8DDE-211" style="edgeStyle=none;rounded=0;orthogonalLoop=1;jettySize=auto;html=1;exitX=1;exitY=0.5;exitDx=0;exitDy=0;entryX=0;entryY=0.5;entryDx=0;entryDy=0;endArrow=none;endFill=0;strokeColor=#6c8ebf;strokeWidth=1;fontColor=#000000;fillColor=#dae8fc;" edge="1" parent="1" source="go-kn7gdVx5rD23F8DDE-213">
          <mxGeometry relative="1" as="geometry">
            <mxPoint x="987.5" y="225" as="targetPoint" />
          </mxGeometry>
        </mxCell>
        <mxCell id="go-kn7gdVx5rD23F8DDE-212" style="edgeStyle=none;rounded=0;orthogonalLoop=1;jettySize=auto;html=1;exitX=1;exitY=0.5;exitDx=0;exitDy=0;entryX=0;entryY=0.5;entryDx=0;entryDy=0;endArrow=none;endFill=0;strokeColor=#6c8ebf;strokeWidth=1;fontColor=#000000;fillColor=#dae8fc;" edge="1" parent="1" source="go-kn7gdVx5rD23F8DDE-213">
          <mxGeometry relative="1" as="geometry">
            <mxPoint x="987.5" y="165" as="targetPoint" />
          </mxGeometry>
        </mxCell>
        <mxCell id="go-kn7gdVx5rD23F8DDE-213" value="" style="ellipse;whiteSpace=wrap;html=1;aspect=fixed;strokeColor=#6c8ebf;fillColor=#dae8fc;direction=west;" vertex="1" parent="1">
          <mxGeometry x="1026" y="150" width="30" height="30" as="geometry" />
        </mxCell>
        <mxCell id="go-kn7gdVx5rD23F8DDE-214" style="edgeStyle=none;rounded=0;orthogonalLoop=1;jettySize=auto;html=1;exitX=1;exitY=0.5;exitDx=0;exitDy=0;entryX=0;entryY=0.5;entryDx=0;entryDy=0;endArrow=none;endFill=0;strokeColor=#6c8ebf;strokeWidth=1;fontColor=#000000;fillColor=#dae8fc;" edge="1" parent="1" source="go-kn7gdVx5rD23F8DDE-218">
          <mxGeometry relative="1" as="geometry">
            <mxPoint x="987.5" y="225" as="targetPoint" />
          </mxGeometry>
        </mxCell>
        <mxCell id="go-kn7gdVx5rD23F8DDE-215" style="edgeStyle=none;rounded=0;orthogonalLoop=1;jettySize=auto;html=1;exitX=1;exitY=0.5;exitDx=0;exitDy=0;entryX=0;entryY=0.5;entryDx=0;entryDy=0;endArrow=none;endFill=0;strokeColor=#6c8ebf;strokeWidth=1;fontColor=#000000;fillColor=#dae8fc;" edge="1" parent="1" source="go-kn7gdVx5rD23F8DDE-218">
          <mxGeometry relative="1" as="geometry">
            <mxPoint x="987.5" y="165" as="targetPoint" />
          </mxGeometry>
        </mxCell>
        <mxCell id="go-kn7gdVx5rD23F8DDE-216" style="edgeStyle=none;rounded=0;orthogonalLoop=1;jettySize=auto;html=1;exitX=1;exitY=0.5;exitDx=0;exitDy=0;entryX=0;entryY=0.5;entryDx=0;entryDy=0;endArrow=none;endFill=0;strokeColor=#6c8ebf;strokeWidth=1;fontColor=#000000;fillColor=#dae8fc;" edge="1" parent="1" source="go-kn7gdVx5rD23F8DDE-218">
          <mxGeometry relative="1" as="geometry">
            <mxPoint x="987.5" y="280" as="targetPoint" />
          </mxGeometry>
        </mxCell>
        <mxCell id="go-kn7gdVx5rD23F8DDE-217" style="edgeStyle=none;rounded=0;orthogonalLoop=1;jettySize=auto;html=1;exitX=1;exitY=0.5;exitDx=0;exitDy=0;entryX=0;entryY=0.5;entryDx=0;entryDy=0;endArrow=none;endFill=0;strokeColor=#6c8ebf;strokeWidth=1;fontColor=#000000;fillColor=#dae8fc;" edge="1" parent="1" source="go-kn7gdVx5rD23F8DDE-218">
          <mxGeometry relative="1" as="geometry">
            <mxPoint x="987.5" y="335" as="targetPoint" />
          </mxGeometry>
        </mxCell>
        <mxCell id="go-kn7gdVx5rD23F8DDE-218" value="" style="ellipse;whiteSpace=wrap;html=1;aspect=fixed;strokeColor=#6c8ebf;fillColor=#dae8fc;direction=west;" vertex="1" parent="1">
          <mxGeometry x="1026" y="210" width="30" height="30" as="geometry" />
        </mxCell>
        <mxCell id="go-kn7gdVx5rD23F8DDE-219" style="edgeStyle=none;rounded=0;orthogonalLoop=1;jettySize=auto;html=1;exitX=1;exitY=0.5;exitDx=0;exitDy=0;entryX=0;entryY=0.5;entryDx=0;entryDy=0;endArrow=none;endFill=0;strokeColor=#6c8ebf;strokeWidth=1;fontColor=#000000;fillColor=#dae8fc;" edge="1" parent="1" source="go-kn7gdVx5rD23F8DDE-221">
          <mxGeometry relative="1" as="geometry">
            <mxPoint x="987.5" y="335" as="targetPoint" />
          </mxGeometry>
        </mxCell>
        <mxCell id="go-kn7gdVx5rD23F8DDE-220" style="edgeStyle=none;rounded=0;orthogonalLoop=1;jettySize=auto;html=1;exitX=1;exitY=0.5;exitDx=0;exitDy=0;entryX=0;entryY=0.5;entryDx=0;entryDy=0;endArrow=none;endFill=0;strokeColor=#6c8ebf;strokeWidth=1;fontColor=#000000;fillColor=#dae8fc;" edge="1" parent="1" source="go-kn7gdVx5rD23F8DDE-221">
          <mxGeometry relative="1" as="geometry">
            <mxPoint x="987.5" y="225" as="targetPoint" />
          </mxGeometry>
        </mxCell>
        <mxCell id="go-kn7gdVx5rD23F8DDE-221" value="" style="ellipse;whiteSpace=wrap;html=1;aspect=fixed;strokeColor=#6c8ebf;fillColor=#dae8fc;direction=west;" vertex="1" parent="1">
          <mxGeometry x="1026" y="265" width="30" height="30" as="geometry" />
        </mxCell>
        <mxCell id="go-kn7gdVx5rD23F8DDE-222" style="edgeStyle=none;rounded=0;orthogonalLoop=1;jettySize=auto;html=1;exitX=1;exitY=0.5;exitDx=0;exitDy=0;entryX=0;entryY=0.5;entryDx=0;entryDy=0;endArrow=none;endFill=0;strokeColor=#6c8ebf;strokeWidth=1;fontColor=#000000;fillColor=#dae8fc;" edge="1" parent="1" source="go-kn7gdVx5rD23F8DDE-226">
          <mxGeometry relative="1" as="geometry">
            <mxPoint x="987.5" y="165" as="targetPoint" />
          </mxGeometry>
        </mxCell>
        <mxCell id="go-kn7gdVx5rD23F8DDE-223" style="edgeStyle=none;rounded=0;orthogonalLoop=1;jettySize=auto;html=1;exitX=1;exitY=0.5;exitDx=0;exitDy=0;entryX=0;entryY=0.5;entryDx=0;entryDy=0;endArrow=none;endFill=0;strokeColor=#6c8ebf;strokeWidth=1;fontColor=#000000;fillColor=#dae8fc;" edge="1" parent="1" source="go-kn7gdVx5rD23F8DDE-226">
          <mxGeometry relative="1" as="geometry">
            <mxPoint x="987.5" y="225" as="targetPoint" />
          </mxGeometry>
        </mxCell>
        <mxCell id="go-kn7gdVx5rD23F8DDE-224" style="edgeStyle=none;rounded=0;orthogonalLoop=1;jettySize=auto;html=1;exitX=1;exitY=0.5;exitDx=0;exitDy=0;entryX=0;entryY=0.5;entryDx=0;entryDy=0;endArrow=none;endFill=0;strokeColor=#6c8ebf;strokeWidth=1;fontColor=#000000;fillColor=#dae8fc;" edge="1" parent="1" source="go-kn7gdVx5rD23F8DDE-226">
          <mxGeometry relative="1" as="geometry">
            <mxPoint x="987.5" y="280" as="targetPoint" />
          </mxGeometry>
        </mxCell>
        <mxCell id="go-kn7gdVx5rD23F8DDE-225" style="edgeStyle=none;rounded=0;orthogonalLoop=1;jettySize=auto;html=1;exitX=1;exitY=0.5;exitDx=0;exitDy=0;entryX=0;entryY=0.5;entryDx=0;entryDy=0;endArrow=none;endFill=0;strokeColor=#6c8ebf;strokeWidth=1;fontColor=#000000;fillColor=#dae8fc;" edge="1" parent="1" source="go-kn7gdVx5rD23F8DDE-226">
          <mxGeometry relative="1" as="geometry">
            <mxPoint x="987.5" y="335" as="targetPoint" />
          </mxGeometry>
        </mxCell>
        <mxCell id="go-kn7gdVx5rD23F8DDE-226" value="" style="ellipse;whiteSpace=wrap;html=1;aspect=fixed;strokeColor=#6c8ebf;fillColor=#dae8fc;direction=west;" vertex="1" parent="1">
          <mxGeometry x="1026" y="320" width="30" height="30" as="geometry" />
        </mxCell>
        <mxCell id="go-kn7gdVx5rD23F8DDE-229" style="edgeStyle=none;rounded=0;orthogonalLoop=1;jettySize=auto;html=1;exitX=0;exitY=0.5;exitDx=0;exitDy=0;entryX=1;entryY=0.5;entryDx=0;entryDy=0;endArrow=none;endFill=0;strokeColor=#6c8ebf;strokeWidth=1;fontColor=#000000;fillColor=#dae8fc;" edge="1" parent="1" target="go-kn7gdVx5rD23F8DDE-221">
          <mxGeometry relative="1" as="geometry">
            <mxPoint x="987.5" y="280" as="sourcePoint" />
          </mxGeometry>
        </mxCell>
        <mxCell id="go-kn7gdVx5rD23F8DDE-232" value="&lt;font style=&quot;font-size: 21px&quot;&gt;...&lt;/font&gt;" style="text;html=1;resizable=0;points=[];autosize=1;align=left;verticalAlign=top;spacingTop=-4;fillColor=none;strokeColor=none;" vertex="1" parent="1">
          <mxGeometry x="952" y="145" width="30" height="20" as="geometry" />
        </mxCell>
        <mxCell id="go-kn7gdVx5rD23F8DDE-235" value="&lt;font style=&quot;font-size: 21px&quot;&gt;...&lt;/font&gt;" style="text;html=1;resizable=0;points=[];autosize=1;align=left;verticalAlign=top;spacingTop=-4;fillColor=none;strokeColor=none;" vertex="1" parent="1">
          <mxGeometry x="955" y="204" width="30" height="20" as="geometry" />
        </mxCell>
        <mxCell id="go-kn7gdVx5rD23F8DDE-236" value="&lt;font style=&quot;font-size: 21px&quot;&gt;...&lt;/font&gt;" style="text;html=1;resizable=0;points=[];autosize=1;align=left;verticalAlign=top;spacingTop=-4;fillColor=none;strokeColor=none;" vertex="1" parent="1">
          <mxGeometry x="953" y="261" width="30" height="20" as="geometry" />
        </mxCell>
        <mxCell id="go-kn7gdVx5rD23F8DDE-237" value="&lt;font style=&quot;font-size: 21px&quot;&gt;...&lt;/font&gt;" style="text;html=1;resizable=0;points=[];autosize=1;align=left;verticalAlign=top;spacingTop=-4;fillColor=none;strokeColor=none;" vertex="1" parent="1">
          <mxGeometry x="952" y="313" width="30" height="20" as="geometry" />
        </mxCell>
        <mxCell id="go-kn7gdVx5rD23F8DDE-240" value="" style="shape=curlyBracket;whiteSpace=wrap;html=1;rounded=1;strokeColor=#FFE599;fillColor=#FFE599;fontColor=#000000;size=0.4277811686197822;rotation=-179;" vertex="1" parent="1">
          <mxGeometry x="509" y="110" width="20" height="290" as="geometry" />
        </mxCell>
        <mxCell id="go-kn7gdVx5rD23F8DDE-241" value="&lt;font style=&quot;font-size: 16px&quot;&gt;&lt;b&gt;Neural Network 0&lt;/b&gt;&lt;/font&gt;" style="text;html=1;resizable=0;points=[];autosize=1;align=left;verticalAlign=top;spacingTop=-4;fontColor=#000000;" vertex="1" parent="1">
          <mxGeometry x="899" y="71" width="150" height="20" as="geometry" />
        </mxCell>
        <mxCell id="go-kn7gdVx5rD23F8DDE-244" value="" style="endArrow=classic;html=1;strokeColor=#FFE599;fontColor=#000000;fillColor=#fff2cc;strokeWidth=2;" edge="1" parent="1">
          <mxGeometry width="50" height="50" relative="1" as="geometry">
            <mxPoint x="730.0000000000002" y="252.9999999999999" as="sourcePoint" />
            <mxPoint x="790.0000000000002" y="252.9999999999999" as="targetPoint" />
          </mxGeometry>
        </mxCell>
        <mxCell id="go-kn7gdVx5rD23F8DDE-245" value="&lt;font style=&quot;font-size: 16px&quot;&gt;&lt;b&gt;Training&lt;/b&gt;&lt;/font&gt;" style="text;html=1;resizable=0;points=[];autosize=1;align=left;verticalAlign=top;spacingTop=-4;fontColor=#000000;" vertex="1" parent="1">
          <mxGeometry x="740" y="73" width="80" height="20" as="geometry" />
        </mxCell>
        <mxCell id="go-kn7gdVx5rD23F8DDE-249" value="&lt;font style=&quot;font-size: 33px&quot;&gt;...&lt;/font&gt;" style="text;html=1;strokeColor=none;fillColor=none;align=center;verticalAlign=middle;whiteSpace=wrap;rounded=0;fontColor=#000000;rotation=-90;" vertex="1" parent="1">
          <mxGeometry x="270" y="440" width="40" height="20" as="geometry" />
        </mxCell>
        <mxCell id="go-kn7gdVx5rD23F8DDE-356" value="" style="rounded=1;whiteSpace=wrap;html=1;strokeColor=#666666;fillColor=#f5f5f5;fontColor=#333333;arcSize=3;" vertex="1" parent="1">
          <mxGeometry x="130" y="510.3333333333333" width="320" height="350" as="geometry" />
        </mxCell>
        <mxCell id="go-kn7gdVx5rD23F8DDE-357" value="Offloading decision" style="rounded=0;whiteSpace=wrap;html=1;strokeColor=#82b366;fillColor=#d5e8d4;" vertex="1" parent="1">
          <mxGeometry x="290" y="540.3333333333333" width="150" height="40" as="geometry" />
        </mxCell>
        <mxCell id="go-kn7gdVx5rD23F8DDE-358" value="Workload" style="rounded=0;whiteSpace=wrap;html=1;strokeColor=#6c8ebf;fillColor=#dae8fc;" vertex="1" parent="1">
          <mxGeometry x="140" y="540.3333333333333" width="150" height="40" as="geometry" />
        </mxCell>
        <mxCell id="go-kn7gdVx5rD23F8DDE-359" value="&lt;b&gt;&lt;font style=&quot;font-size: 18px&quot;&gt;MEMORY K&lt;/font&gt;&lt;/b&gt;" style="text;html=1;resizable=0;points=[];autosize=1;align=left;verticalAlign=top;spacingTop=-4;fontColor=#000000;" vertex="1" parent="1">
          <mxGeometry x="255" y="473.3333333333333" width="110" height="20" as="geometry" />
        </mxCell>
        <mxCell id="go-kn7gdVx5rD23F8DDE-360" value="input data" style="text;html=1;strokeColor=none;fillColor=none;align=center;verticalAlign=middle;whiteSpace=wrap;rounded=0;fontColor=#000000;" vertex="1" parent="1">
          <mxGeometry x="195" y="520.3333333333333" width="55" height="20" as="geometry" />
        </mxCell>
        <mxCell id="go-kn7gdVx5rD23F8DDE-361" value="output data" style="text;html=1;strokeColor=none;fillColor=none;align=center;verticalAlign=middle;whiteSpace=wrap;rounded=0;fontColor=#000000;" vertex="1" parent="1">
          <mxGeometry x="330" y="520.3333333333333" width="63" height="20" as="geometry" />
        </mxCell>
        <mxCell id="go-kn7gdVx5rD23F8DDE-362" value="Offloading decision" style="rounded=0;whiteSpace=wrap;html=1;strokeColor=#82b366;fillColor=#d5e8d4;" vertex="1" parent="1">
          <mxGeometry x="290" y="580.3333333333333" width="150" height="40" as="geometry" />
        </mxCell>
        <mxCell id="go-kn7gdVx5rD23F8DDE-363" value="Workload" style="rounded=0;whiteSpace=wrap;html=1;strokeColor=#6c8ebf;fillColor=#dae8fc;" vertex="1" parent="1">
          <mxGeometry x="140" y="580.3333333333333" width="150" height="40" as="geometry" />
        </mxCell>
        <mxCell id="go-kn7gdVx5rD23F8DDE-364" value="Offloading decision" style="rounded=0;whiteSpace=wrap;html=1;strokeColor=#82b366;fillColor=#d5e8d4;" vertex="1" parent="1">
          <mxGeometry x="290" y="620.3333333333333" width="150" height="40" as="geometry" />
        </mxCell>
        <mxCell id="go-kn7gdVx5rD23F8DDE-365" value="Workload" style="rounded=0;whiteSpace=wrap;html=1;strokeColor=#6c8ebf;fillColor=#dae8fc;" vertex="1" parent="1">
          <mxGeometry x="140" y="620.3333333333333" width="150" height="40" as="geometry" />
        </mxCell>
        <mxCell id="go-kn7gdVx5rD23F8DDE-366" value="Offloading decision" style="rounded=0;whiteSpace=wrap;html=1;strokeColor=#82b366;fillColor=#d5e8d4;" vertex="1" parent="1">
          <mxGeometry x="290" y="660.3333333333333" width="150" height="40" as="geometry" />
        </mxCell>
        <mxCell id="go-kn7gdVx5rD23F8DDE-367" value="Workload" style="rounded=0;whiteSpace=wrap;html=1;strokeColor=#6c8ebf;fillColor=#dae8fc;" vertex="1" parent="1">
          <mxGeometry x="140" y="660.3333333333333" width="150" height="40" as="geometry" />
        </mxCell>
        <mxCell id="go-kn7gdVx5rD23F8DDE-368" value="Offloading decision" style="rounded=0;whiteSpace=wrap;html=1;strokeColor=#82b366;fillColor=#d5e8d4;" vertex="1" parent="1">
          <mxGeometry x="290" y="770.3333333333333" width="150" height="40" as="geometry" />
        </mxCell>
        <mxCell id="go-kn7gdVx5rD23F8DDE-369" value="Workload" style="rounded=0;whiteSpace=wrap;html=1;strokeColor=#6c8ebf;fillColor=#dae8fc;" vertex="1" parent="1">
          <mxGeometry x="140" y="770.3333333333333" width="150" height="40" as="geometry" />
        </mxCell>
        <mxCell id="go-kn7gdVx5rD23F8DDE-370" value="Offloading decision" style="rounded=0;whiteSpace=wrap;html=1;strokeColor=#82b366;fillColor=#d5e8d4;" vertex="1" parent="1">
          <mxGeometry x="290" y="810.3333333333333" width="150" height="40" as="geometry" />
        </mxCell>
        <mxCell id="go-kn7gdVx5rD23F8DDE-371" value="Workload" style="rounded=0;whiteSpace=wrap;html=1;strokeColor=#6c8ebf;fillColor=#dae8fc;" vertex="1" parent="1">
          <mxGeometry x="140" y="810.3333333333333" width="150" height="40" as="geometry" />
        </mxCell>
        <mxCell id="go-kn7gdVx5rD23F8DDE-372" value="&lt;font style=&quot;font-size: 25px&quot;&gt;...&lt;/font&gt;" style="text;html=1;strokeColor=none;fillColor=none;align=center;verticalAlign=middle;whiteSpace=wrap;rounded=0;fontColor=#000000;rotation=-90;" vertex="1" parent="1">
          <mxGeometry x="270" y="725.3333333333333" width="40" height="20" as="geometry" />
        </mxCell>
        <mxCell id="go-kn7gdVx5rD23F8DDE-373" value="[batch_size rows x 18 columns]" style="text;html=1;resizable=0;points=[];autosize=1;align=left;verticalAlign=top;spacingTop=-4;fontColor=#000000;" vertex="1" parent="1">
          <mxGeometry x="630" y="780.3333333333333" width="180" height="20" as="geometry" />
        </mxCell>
        <mxCell id="go-kn7gdVx5rD23F8DDE-374" value="" style="endArrow=classic;html=1;strokeColor=#EA6B66;fontColor=#000000;fillColor=#fff2cc;strokeWidth=2;" edge="1" parent="1">
          <mxGeometry width="50" height="50" relative="1" as="geometry">
            <mxPoint x="460.0000000000002" y="830.3333333333333" as="sourcePoint" />
            <mxPoint x="520.0000000000002" y="830.3333333333333" as="targetPoint" />
          </mxGeometry>
        </mxCell>
        <mxCell id="go-kn7gdVx5rD23F8DDE-375" value="" style="endArrow=classic;html=1;strokeColor=#EA6B66;fontColor=#000000;fillColor=#fff2cc;strokeWidth=2;" edge="1" parent="1">
          <mxGeometry width="50" height="50" relative="1" as="geometry">
            <mxPoint x="460.0000000000002" y="680.3333333333333" as="sourcePoint" />
            <mxPoint x="520.0000000000002" y="680.3333333333333" as="targetPoint" />
          </mxGeometry>
        </mxCell>
        <mxCell id="go-kn7gdVx5rD23F8DDE-376" value="" style="endArrow=classic;html=1;strokeColor=#EA6B66;fontColor=#000000;fillColor=#fff2cc;strokeWidth=2;" edge="1" parent="1">
          <mxGeometry width="50" height="50" relative="1" as="geometry">
            <mxPoint x="460.0000000000002" y="560.3333333333333" as="sourcePoint" />
            <mxPoint x="520.0000000000002" y="560.3333333333333" as="targetPoint" />
          </mxGeometry>
        </mxCell>
        <mxCell id="go-kn7gdVx5rD23F8DDE-377" value="Offloading decision" style="rounded=0;whiteSpace=wrap;html=1;strokeColor=#EA6B66;fillColor=#FF6666;" vertex="1" parent="1">
          <mxGeometry x="630" y="615.3333333333333" width="80" height="40" as="geometry" />
        </mxCell>
        <mxCell id="go-kn7gdVx5rD23F8DDE-378" value="Workload" style="rounded=0;whiteSpace=wrap;html=1;strokeColor=#EA6B66;fillColor=#FFCCCC;" vertex="1" parent="1">
          <mxGeometry x="550" y="615.3333333333333" width="80" height="40" as="geometry" />
        </mxCell>
        <mxCell id="go-kn7gdVx5rD23F8DDE-379" value="Offloading decision" style="rounded=0;whiteSpace=wrap;html=1;strokeColor=#EA6B66;fillColor=#FF6666;" vertex="1" parent="1">
          <mxGeometry x="630" y="655.3333333333333" width="80" height="40" as="geometry" />
        </mxCell>
        <mxCell id="go-kn7gdVx5rD23F8DDE-380" value="Workload" style="rounded=0;whiteSpace=wrap;html=1;strokeColor=#EA6B66;fillColor=#FFCCCC;" vertex="1" parent="1">
          <mxGeometry x="550" y="655.3333333333333" width="80" height="40" as="geometry" />
        </mxCell>
        <mxCell id="go-kn7gdVx5rD23F8DDE-381" value="Offloading decision" style="rounded=0;whiteSpace=wrap;html=1;strokeColor=#EA6B66;fillColor=#FF6666;" vertex="1" parent="1">
          <mxGeometry x="630" y="695.3333333333333" width="80" height="40" as="geometry" />
        </mxCell>
        <mxCell id="go-kn7gdVx5rD23F8DDE-382" value="Workload" style="rounded=0;whiteSpace=wrap;html=1;strokeColor=#EA6B66;fillColor=#FFCCCC;" vertex="1" parent="1">
          <mxGeometry x="550" y="695.3333333333333" width="80" height="40" as="geometry" />
        </mxCell>
        <mxCell id="go-kn7gdVx5rD23F8DDE-383" value="Offloading decision" style="rounded=0;whiteSpace=wrap;html=1;strokeColor=#EA6B66;fillColor=#FF6666;" vertex="1" parent="1">
          <mxGeometry x="630" y="735.3333333333333" width="80" height="40" as="geometry" />
        </mxCell>
        <mxCell id="go-kn7gdVx5rD23F8DDE-384" value="Workload" style="rounded=0;whiteSpace=wrap;html=1;strokeColor=#EA6B66;fillColor=#FFCCCC;" vertex="1" parent="1">
          <mxGeometry x="550" y="735.3333333333333" width="80" height="40" as="geometry" />
        </mxCell>
        <mxCell id="go-kn7gdVx5rD23F8DDE-385" value="&lt;b&gt;&lt;font style=&quot;font-size: 16px&quot;&gt;Random batches&lt;/font&gt;&lt;/b&gt;" style="text;html=1;resizable=0;points=[];autosize=1;align=left;verticalAlign=top;spacingTop=-4;fontColor=#000000;" vertex="1" parent="1">
          <mxGeometry x="575" y="514.3333333333333" width="140" height="20" as="geometry" />
        </mxCell>
        <mxCell id="go-kn7gdVx5rD23F8DDE-386" style="rounded=0;orthogonalLoop=1;jettySize=auto;html=1;exitX=1;exitY=0.5;exitDx=0;exitDy=0;entryX=0;entryY=0.5;entryDx=0;entryDy=0;strokeColor=#000000;strokeWidth=1;fontColor=#000000;endArrow=none;endFill=0;" edge="1" parent="1" source="go-kn7gdVx5rD23F8DDE-390" target="go-kn7gdVx5rD23F8DDE-405">
          <mxGeometry relative="1" as="geometry" />
        </mxCell>
        <mxCell id="go-kn7gdVx5rD23F8DDE-387" style="edgeStyle=none;rounded=0;orthogonalLoop=1;jettySize=auto;html=1;exitX=1;exitY=0.5;exitDx=0;exitDy=0;entryX=0;entryY=0.5;entryDx=0;entryDy=0;endArrow=none;endFill=0;strokeColor=#000000;strokeWidth=1;fontColor=#000000;" edge="1" parent="1" source="go-kn7gdVx5rD23F8DDE-390" target="go-kn7gdVx5rD23F8DDE-410">
          <mxGeometry relative="1" as="geometry" />
        </mxCell>
        <mxCell id="go-kn7gdVx5rD23F8DDE-388" style="edgeStyle=none;rounded=0;orthogonalLoop=1;jettySize=auto;html=1;exitX=1;exitY=0.5;exitDx=0;exitDy=0;entryX=0;entryY=0.5;entryDx=0;entryDy=0;endArrow=none;endFill=0;strokeColor=#000000;strokeWidth=1;fontColor=#000000;" edge="1" parent="1" source="go-kn7gdVx5rD23F8DDE-390" target="go-kn7gdVx5rD23F8DDE-413">
          <mxGeometry relative="1" as="geometry" />
        </mxCell>
        <mxCell id="go-kn7gdVx5rD23F8DDE-389" style="edgeStyle=none;rounded=0;orthogonalLoop=1;jettySize=auto;html=1;exitX=1;exitY=0.5;exitDx=0;exitDy=0;entryX=0;entryY=0.5;entryDx=0;entryDy=0;endArrow=none;endFill=0;strokeColor=#000000;strokeWidth=1;fontColor=#000000;" edge="1" parent="1" source="go-kn7gdVx5rD23F8DDE-390" target="go-kn7gdVx5rD23F8DDE-418">
          <mxGeometry relative="1" as="geometry" />
        </mxCell>
        <mxCell id="go-kn7gdVx5rD23F8DDE-390" value="" style="ellipse;whiteSpace=wrap;html=1;aspect=fixed;strokeColor=#b85450;fillColor=#f8cecc;" vertex="1" parent="1">
          <mxGeometry x="822" y="619.3333333333333" width="30" height="30" as="geometry" />
        </mxCell>
        <mxCell id="go-kn7gdVx5rD23F8DDE-391" style="edgeStyle=none;rounded=0;orthogonalLoop=1;jettySize=auto;html=1;exitX=1;exitY=0.5;exitDx=0;exitDy=0;entryX=0;entryY=0.5;entryDx=0;entryDy=0;endArrow=none;endFill=0;strokeColor=#000000;strokeWidth=1;fontColor=#000000;" edge="1" parent="1" source="go-kn7gdVx5rD23F8DDE-395" target="go-kn7gdVx5rD23F8DDE-405">
          <mxGeometry relative="1" as="geometry" />
        </mxCell>
        <mxCell id="go-kn7gdVx5rD23F8DDE-392" style="edgeStyle=none;rounded=0;orthogonalLoop=1;jettySize=auto;html=1;exitX=1;exitY=0.5;exitDx=0;exitDy=0;entryX=0;entryY=0.5;entryDx=0;entryDy=0;endArrow=none;endFill=0;strokeColor=#000000;strokeWidth=1;fontColor=#000000;" edge="1" parent="1" source="go-kn7gdVx5rD23F8DDE-395" target="go-kn7gdVx5rD23F8DDE-410">
          <mxGeometry relative="1" as="geometry" />
        </mxCell>
        <mxCell id="go-kn7gdVx5rD23F8DDE-393" style="edgeStyle=none;rounded=0;orthogonalLoop=1;jettySize=auto;html=1;exitX=1;exitY=0.5;exitDx=0;exitDy=0;entryX=0;entryY=0.5;entryDx=0;entryDy=0;endArrow=none;endFill=0;strokeColor=#000000;strokeWidth=1;fontColor=#000000;" edge="1" parent="1" source="go-kn7gdVx5rD23F8DDE-395" target="go-kn7gdVx5rD23F8DDE-418">
          <mxGeometry relative="1" as="geometry" />
        </mxCell>
        <mxCell id="go-kn7gdVx5rD23F8DDE-394" style="edgeStyle=none;rounded=0;orthogonalLoop=1;jettySize=auto;html=1;exitX=1;exitY=0.5;exitDx=0;exitDy=0;entryX=0;entryY=0.5;entryDx=0;entryDy=0;endArrow=none;endFill=0;strokeColor=#000000;strokeWidth=1;fontColor=#000000;" edge="1" parent="1" source="go-kn7gdVx5rD23F8DDE-395" target="go-kn7gdVx5rD23F8DDE-413">
          <mxGeometry relative="1" as="geometry" />
        </mxCell>
        <mxCell id="go-kn7gdVx5rD23F8DDE-395" value="" style="ellipse;whiteSpace=wrap;html=1;aspect=fixed;strokeColor=#b85450;fillColor=#f8cecc;" vertex="1" parent="1">
          <mxGeometry x="822" y="679.3333333333333" width="30" height="30" as="geometry" />
        </mxCell>
        <mxCell id="go-kn7gdVx5rD23F8DDE-396" style="edgeStyle=none;rounded=0;orthogonalLoop=1;jettySize=auto;html=1;exitX=1;exitY=0.5;exitDx=0;exitDy=0;entryX=0;entryY=0.5;entryDx=0;entryDy=0;endArrow=none;endFill=0;strokeColor=#000000;strokeWidth=1;fontColor=#000000;" edge="1" parent="1" source="go-kn7gdVx5rD23F8DDE-400" target="go-kn7gdVx5rD23F8DDE-413">
          <mxGeometry relative="1" as="geometry" />
        </mxCell>
        <mxCell id="go-kn7gdVx5rD23F8DDE-397" style="edgeStyle=none;rounded=0;orthogonalLoop=1;jettySize=auto;html=1;exitX=1;exitY=0.5;exitDx=0;exitDy=0;entryX=0;entryY=0.5;entryDx=0;entryDy=0;endArrow=none;endFill=0;strokeColor=#000000;strokeWidth=1;fontColor=#000000;" edge="1" parent="1" source="go-kn7gdVx5rD23F8DDE-400" target="go-kn7gdVx5rD23F8DDE-410">
          <mxGeometry relative="1" as="geometry" />
        </mxCell>
        <mxCell id="go-kn7gdVx5rD23F8DDE-398" style="edgeStyle=none;rounded=0;orthogonalLoop=1;jettySize=auto;html=1;exitX=1;exitY=0.5;exitDx=0;exitDy=0;entryX=0;entryY=0.5;entryDx=0;entryDy=0;endArrow=none;endFill=0;strokeColor=#000000;strokeWidth=1;fontColor=#000000;" edge="1" parent="1" source="go-kn7gdVx5rD23F8DDE-400" target="go-kn7gdVx5rD23F8DDE-405">
          <mxGeometry relative="1" as="geometry" />
        </mxCell>
        <mxCell id="go-kn7gdVx5rD23F8DDE-399" style="edgeStyle=none;rounded=0;orthogonalLoop=1;jettySize=auto;html=1;exitX=1;exitY=0.5;exitDx=0;exitDy=0;entryX=0;entryY=0.5;entryDx=0;entryDy=0;endArrow=none;endFill=0;strokeColor=#000000;strokeWidth=1;fontColor=#000000;" edge="1" parent="1" source="go-kn7gdVx5rD23F8DDE-400" target="go-kn7gdVx5rD23F8DDE-418">
          <mxGeometry relative="1" as="geometry" />
        </mxCell>
        <mxCell id="go-kn7gdVx5rD23F8DDE-400" value="" style="ellipse;whiteSpace=wrap;html=1;aspect=fixed;strokeColor=#b85450;fillColor=#f8cecc;" vertex="1" parent="1">
          <mxGeometry x="822" y="734.3333333333333" width="30" height="30" as="geometry" />
        </mxCell>
        <mxCell id="go-kn7gdVx5rD23F8DDE-401" style="edgeStyle=none;rounded=0;orthogonalLoop=1;jettySize=auto;html=1;exitX=1;exitY=0.5;exitDx=0;exitDy=0;entryX=0;entryY=0.5;entryDx=0;entryDy=0;endArrow=none;endFill=0;strokeColor=#000000;strokeWidth=1;fontColor=#000000;" edge="1" parent="1" source="go-kn7gdVx5rD23F8DDE-405">
          <mxGeometry relative="1" as="geometry">
            <mxPoint x="955" y="774.3333333333333" as="targetPoint" />
          </mxGeometry>
        </mxCell>
        <mxCell id="go-kn7gdVx5rD23F8DDE-402" style="edgeStyle=none;rounded=0;orthogonalLoop=1;jettySize=auto;html=1;exitX=1;exitY=0.5;exitDx=0;exitDy=0;entryX=0;entryY=0.5;entryDx=0;entryDy=0;endArrow=none;endFill=0;strokeColor=#000000;strokeWidth=1;fontColor=#000000;" edge="1" parent="1" source="go-kn7gdVx5rD23F8DDE-405">
          <mxGeometry relative="1" as="geometry">
            <mxPoint x="955" y="719.3333333333335" as="targetPoint" />
          </mxGeometry>
        </mxCell>
        <mxCell id="go-kn7gdVx5rD23F8DDE-403" style="edgeStyle=none;rounded=0;orthogonalLoop=1;jettySize=auto;html=1;exitX=1;exitY=0.5;exitDx=0;exitDy=0;entryX=0;entryY=0.5;entryDx=0;entryDy=0;endArrow=none;endFill=0;strokeColor=#000000;strokeWidth=1;fontColor=#000000;" edge="1" parent="1" source="go-kn7gdVx5rD23F8DDE-405">
          <mxGeometry relative="1" as="geometry">
            <mxPoint x="955" y="664.3333333333335" as="targetPoint" />
          </mxGeometry>
        </mxCell>
        <mxCell id="go-kn7gdVx5rD23F8DDE-404" style="edgeStyle=none;rounded=0;orthogonalLoop=1;jettySize=auto;html=1;exitX=1;exitY=0.5;exitDx=0;exitDy=0;entryX=0;entryY=0.5;entryDx=0;entryDy=0;endArrow=none;endFill=0;strokeColor=#000000;strokeWidth=1;fontColor=#000000;" edge="1" parent="1" source="go-kn7gdVx5rD23F8DDE-405">
          <mxGeometry relative="1" as="geometry">
            <mxPoint x="955" y="604.3333333333335" as="targetPoint" />
          </mxGeometry>
        </mxCell>
        <mxCell id="go-kn7gdVx5rD23F8DDE-405" value="" style="ellipse;whiteSpace=wrap;html=1;aspect=fixed;strokeColor=#b85450;fillColor=#f8cecc;" vertex="1" parent="1">
          <mxGeometry x="887" y="589.3333333333333" width="30" height="30" as="geometry" />
        </mxCell>
        <mxCell id="go-kn7gdVx5rD23F8DDE-406" style="edgeStyle=none;rounded=0;orthogonalLoop=1;jettySize=auto;html=1;exitX=1;exitY=0.5;exitDx=0;exitDy=0;entryX=0;entryY=0.5;entryDx=0;entryDy=0;endArrow=none;endFill=0;strokeColor=#000000;strokeWidth=1;fontColor=#000000;" edge="1" parent="1" source="go-kn7gdVx5rD23F8DDE-410">
          <mxGeometry relative="1" as="geometry">
            <mxPoint x="955" y="664.3333333333335" as="targetPoint" />
          </mxGeometry>
        </mxCell>
        <mxCell id="go-kn7gdVx5rD23F8DDE-407" style="edgeStyle=none;rounded=0;orthogonalLoop=1;jettySize=auto;html=1;exitX=1;exitY=0.5;exitDx=0;exitDy=0;entryX=0;entryY=0.5;entryDx=0;entryDy=0;endArrow=none;endFill=0;strokeColor=#000000;strokeWidth=1;fontColor=#000000;" edge="1" parent="1" source="go-kn7gdVx5rD23F8DDE-410">
          <mxGeometry relative="1" as="geometry">
            <mxPoint x="955" y="604.3333333333335" as="targetPoint" />
          </mxGeometry>
        </mxCell>
        <mxCell id="go-kn7gdVx5rD23F8DDE-408" style="edgeStyle=none;rounded=0;orthogonalLoop=1;jettySize=auto;html=1;exitX=1;exitY=0.5;exitDx=0;exitDy=0;entryX=0;entryY=0.5;entryDx=0;entryDy=0;endArrow=none;endFill=0;strokeColor=#000000;strokeWidth=1;fontColor=#000000;" edge="1" parent="1" source="go-kn7gdVx5rD23F8DDE-410">
          <mxGeometry relative="1" as="geometry">
            <mxPoint x="955" y="719.3333333333335" as="targetPoint" />
          </mxGeometry>
        </mxCell>
        <mxCell id="go-kn7gdVx5rD23F8DDE-409" style="edgeStyle=none;rounded=0;orthogonalLoop=1;jettySize=auto;html=1;exitX=1;exitY=0.5;exitDx=0;exitDy=0;entryX=0;entryY=0.5;entryDx=0;entryDy=0;endArrow=none;endFill=0;strokeColor=#000000;strokeWidth=1;fontColor=#000000;" edge="1" parent="1" source="go-kn7gdVx5rD23F8DDE-410">
          <mxGeometry relative="1" as="geometry">
            <mxPoint x="955" y="774.3333333333333" as="targetPoint" />
          </mxGeometry>
        </mxCell>
        <mxCell id="go-kn7gdVx5rD23F8DDE-410" value="" style="ellipse;whiteSpace=wrap;html=1;aspect=fixed;strokeColor=#b85450;fillColor=#f8cecc;" vertex="1" parent="1">
          <mxGeometry x="887" y="649.3333333333333" width="30" height="30" as="geometry" />
        </mxCell>
        <mxCell id="go-kn7gdVx5rD23F8DDE-411" style="edgeStyle=none;rounded=0;orthogonalLoop=1;jettySize=auto;html=1;exitX=1;exitY=0.5;exitDx=0;exitDy=0;entryX=0;entryY=0.5;entryDx=0;entryDy=0;endArrow=none;endFill=0;strokeColor=#000000;strokeWidth=1;fontColor=#000000;" edge="1" parent="1" source="go-kn7gdVx5rD23F8DDE-413">
          <mxGeometry relative="1" as="geometry">
            <mxPoint x="955" y="774.3333333333333" as="targetPoint" />
          </mxGeometry>
        </mxCell>
        <mxCell id="go-kn7gdVx5rD23F8DDE-412" style="edgeStyle=none;rounded=0;orthogonalLoop=1;jettySize=auto;html=1;exitX=1;exitY=0.5;exitDx=0;exitDy=0;entryX=0;entryY=0.5;entryDx=0;entryDy=0;endArrow=none;endFill=0;strokeColor=#000000;strokeWidth=1;fontColor=#000000;" edge="1" parent="1" source="go-kn7gdVx5rD23F8DDE-413">
          <mxGeometry relative="1" as="geometry">
            <mxPoint x="955" y="664.3333333333335" as="targetPoint" />
          </mxGeometry>
        </mxCell>
        <mxCell id="go-kn7gdVx5rD23F8DDE-413" value="" style="ellipse;whiteSpace=wrap;html=1;aspect=fixed;strokeColor=#b85450;fillColor=#f8cecc;" vertex="1" parent="1">
          <mxGeometry x="887" y="704.3333333333333" width="30" height="30" as="geometry" />
        </mxCell>
        <mxCell id="go-kn7gdVx5rD23F8DDE-414" style="edgeStyle=none;rounded=0;orthogonalLoop=1;jettySize=auto;html=1;exitX=1;exitY=0.5;exitDx=0;exitDy=0;entryX=0;entryY=0.5;entryDx=0;entryDy=0;endArrow=none;endFill=0;strokeColor=#000000;strokeWidth=1;fontColor=#000000;" edge="1" parent="1" source="go-kn7gdVx5rD23F8DDE-418">
          <mxGeometry relative="1" as="geometry">
            <mxPoint x="955" y="604.3333333333335" as="targetPoint" />
          </mxGeometry>
        </mxCell>
        <mxCell id="go-kn7gdVx5rD23F8DDE-415" style="edgeStyle=none;rounded=0;orthogonalLoop=1;jettySize=auto;html=1;exitX=1;exitY=0.5;exitDx=0;exitDy=0;entryX=0;entryY=0.5;entryDx=0;entryDy=0;endArrow=none;endFill=0;strokeColor=#000000;strokeWidth=1;fontColor=#000000;" edge="1" parent="1" source="go-kn7gdVx5rD23F8DDE-418">
          <mxGeometry relative="1" as="geometry">
            <mxPoint x="955" y="664.3333333333335" as="targetPoint" />
          </mxGeometry>
        </mxCell>
        <mxCell id="go-kn7gdVx5rD23F8DDE-416" style="edgeStyle=none;rounded=0;orthogonalLoop=1;jettySize=auto;html=1;exitX=1;exitY=0.5;exitDx=0;exitDy=0;entryX=0;entryY=0.5;entryDx=0;entryDy=0;endArrow=none;endFill=0;strokeColor=#000000;strokeWidth=1;fontColor=#000000;" edge="1" parent="1" source="go-kn7gdVx5rD23F8DDE-418">
          <mxGeometry relative="1" as="geometry">
            <mxPoint x="955" y="719.3333333333335" as="targetPoint" />
          </mxGeometry>
        </mxCell>
        <mxCell id="go-kn7gdVx5rD23F8DDE-417" style="edgeStyle=none;rounded=0;orthogonalLoop=1;jettySize=auto;html=1;exitX=1;exitY=0.5;exitDx=0;exitDy=0;entryX=0;entryY=0.5;entryDx=0;entryDy=0;endArrow=none;endFill=0;strokeColor=#000000;strokeWidth=1;fontColor=#000000;" edge="1" parent="1" source="go-kn7gdVx5rD23F8DDE-418">
          <mxGeometry relative="1" as="geometry">
            <mxPoint x="955" y="774.3333333333333" as="targetPoint" />
          </mxGeometry>
        </mxCell>
        <mxCell id="go-kn7gdVx5rD23F8DDE-418" value="" style="ellipse;whiteSpace=wrap;html=1;aspect=fixed;strokeColor=#b85450;fillColor=#f8cecc;" vertex="1" parent="1">
          <mxGeometry x="887" y="759.3333333333333" width="30" height="30" as="geometry" />
        </mxCell>
        <mxCell id="go-kn7gdVx5rD23F8DDE-419" style="edgeStyle=none;rounded=0;orthogonalLoop=1;jettySize=auto;html=1;exitX=0;exitY=0.5;exitDx=0;exitDy=0;entryX=1;entryY=0.5;entryDx=0;entryDy=0;endArrow=none;endFill=0;strokeColor=#000000;strokeWidth=1;fontColor=#000000;" edge="1" parent="1" target="go-kn7gdVx5rD23F8DDE-413">
          <mxGeometry relative="1" as="geometry">
            <mxPoint x="955" y="719.3333333333335" as="sourcePoint" />
          </mxGeometry>
        </mxCell>
        <mxCell id="go-kn7gdVx5rD23F8DDE-420" style="rounded=0;orthogonalLoop=1;jettySize=auto;html=1;exitX=1;exitY=0.5;exitDx=0;exitDy=0;entryX=0;entryY=0.5;entryDx=0;entryDy=0;strokeColor=#000000;strokeWidth=1;fontColor=#000000;endArrow=none;endFill=0;" edge="1" parent="1" source="go-kn7gdVx5rD23F8DDE-424" target="go-kn7gdVx5rD23F8DDE-439">
          <mxGeometry relative="1" as="geometry" />
        </mxCell>
        <mxCell id="go-kn7gdVx5rD23F8DDE-421" style="edgeStyle=none;rounded=0;orthogonalLoop=1;jettySize=auto;html=1;exitX=1;exitY=0.5;exitDx=0;exitDy=0;entryX=0;entryY=0.5;entryDx=0;entryDy=0;endArrow=none;endFill=0;strokeColor=#000000;strokeWidth=1;fontColor=#000000;" edge="1" parent="1" source="go-kn7gdVx5rD23F8DDE-424" target="go-kn7gdVx5rD23F8DDE-444">
          <mxGeometry relative="1" as="geometry" />
        </mxCell>
        <mxCell id="go-kn7gdVx5rD23F8DDE-422" style="edgeStyle=none;rounded=0;orthogonalLoop=1;jettySize=auto;html=1;exitX=1;exitY=0.5;exitDx=0;exitDy=0;entryX=0;entryY=0.5;entryDx=0;entryDy=0;endArrow=none;endFill=0;strokeColor=#000000;strokeWidth=1;fontColor=#000000;" edge="1" parent="1" source="go-kn7gdVx5rD23F8DDE-424" target="go-kn7gdVx5rD23F8DDE-447">
          <mxGeometry relative="1" as="geometry" />
        </mxCell>
        <mxCell id="go-kn7gdVx5rD23F8DDE-423" style="edgeStyle=none;rounded=0;orthogonalLoop=1;jettySize=auto;html=1;exitX=1;exitY=0.5;exitDx=0;exitDy=0;entryX=0;entryY=0.5;entryDx=0;entryDy=0;endArrow=none;endFill=0;strokeColor=#000000;strokeWidth=1;fontColor=#000000;" edge="1" parent="1" source="go-kn7gdVx5rD23F8DDE-424" target="go-kn7gdVx5rD23F8DDE-452">
          <mxGeometry relative="1" as="geometry" />
        </mxCell>
        <mxCell id="go-kn7gdVx5rD23F8DDE-424" value="" style="ellipse;whiteSpace=wrap;html=1;aspect=fixed;strokeColor=#b85450;fillColor=#f8cecc;direction=west;" vertex="1" parent="1">
          <mxGeometry x="1100.5" y="627.8333333333333" width="30" height="30" as="geometry" />
        </mxCell>
        <mxCell id="go-kn7gdVx5rD23F8DDE-425" style="edgeStyle=none;rounded=0;orthogonalLoop=1;jettySize=auto;html=1;exitX=1;exitY=0.5;exitDx=0;exitDy=0;entryX=0;entryY=0.5;entryDx=0;entryDy=0;endArrow=none;endFill=0;strokeColor=#000000;strokeWidth=1;fontColor=#000000;" edge="1" parent="1" source="go-kn7gdVx5rD23F8DDE-429" target="go-kn7gdVx5rD23F8DDE-439">
          <mxGeometry relative="1" as="geometry" />
        </mxCell>
        <mxCell id="go-kn7gdVx5rD23F8DDE-426" style="edgeStyle=none;rounded=0;orthogonalLoop=1;jettySize=auto;html=1;exitX=1;exitY=0.5;exitDx=0;exitDy=0;entryX=0;entryY=0.5;entryDx=0;entryDy=0;endArrow=none;endFill=0;strokeColor=#000000;strokeWidth=1;fontColor=#000000;" edge="1" parent="1" source="go-kn7gdVx5rD23F8DDE-429" target="go-kn7gdVx5rD23F8DDE-444">
          <mxGeometry relative="1" as="geometry" />
        </mxCell>
        <mxCell id="go-kn7gdVx5rD23F8DDE-427" style="edgeStyle=none;rounded=0;orthogonalLoop=1;jettySize=auto;html=1;exitX=1;exitY=0.5;exitDx=0;exitDy=0;entryX=0;entryY=0.5;entryDx=0;entryDy=0;endArrow=none;endFill=0;strokeColor=#000000;strokeWidth=1;fontColor=#000000;" edge="1" parent="1" source="go-kn7gdVx5rD23F8DDE-429" target="go-kn7gdVx5rD23F8DDE-452">
          <mxGeometry relative="1" as="geometry" />
        </mxCell>
        <mxCell id="go-kn7gdVx5rD23F8DDE-428" style="edgeStyle=none;rounded=0;orthogonalLoop=1;jettySize=auto;html=1;exitX=1;exitY=0.5;exitDx=0;exitDy=0;entryX=0;entryY=0.5;entryDx=0;entryDy=0;endArrow=none;endFill=0;strokeColor=#000000;strokeWidth=1;fontColor=#000000;" edge="1" parent="1" source="go-kn7gdVx5rD23F8DDE-429" target="go-kn7gdVx5rD23F8DDE-447">
          <mxGeometry relative="1" as="geometry" />
        </mxCell>
        <mxCell id="go-kn7gdVx5rD23F8DDE-429" value="" style="ellipse;whiteSpace=wrap;html=1;aspect=fixed;strokeColor=#b85450;fillColor=#f8cecc;direction=west;" vertex="1" parent="1">
          <mxGeometry x="1102" y="682.3333333333333" width="30" height="30" as="geometry" />
        </mxCell>
        <mxCell id="go-kn7gdVx5rD23F8DDE-430" style="edgeStyle=none;rounded=0;orthogonalLoop=1;jettySize=auto;html=1;exitX=1;exitY=0.5;exitDx=0;exitDy=0;entryX=0;entryY=0.5;entryDx=0;entryDy=0;endArrow=none;endFill=0;strokeColor=#000000;strokeWidth=1;fontColor=#000000;" edge="1" parent="1" source="go-kn7gdVx5rD23F8DDE-434" target="go-kn7gdVx5rD23F8DDE-447">
          <mxGeometry relative="1" as="geometry" />
        </mxCell>
        <mxCell id="go-kn7gdVx5rD23F8DDE-431" style="edgeStyle=none;rounded=0;orthogonalLoop=1;jettySize=auto;html=1;exitX=1;exitY=0.5;exitDx=0;exitDy=0;entryX=0;entryY=0.5;entryDx=0;entryDy=0;endArrow=none;endFill=0;strokeColor=#000000;strokeWidth=1;fontColor=#000000;" edge="1" parent="1" source="go-kn7gdVx5rD23F8DDE-434" target="go-kn7gdVx5rD23F8DDE-444">
          <mxGeometry relative="1" as="geometry" />
        </mxCell>
        <mxCell id="go-kn7gdVx5rD23F8DDE-432" style="edgeStyle=none;rounded=0;orthogonalLoop=1;jettySize=auto;html=1;exitX=1;exitY=0.5;exitDx=0;exitDy=0;entryX=0;entryY=0.5;entryDx=0;entryDy=0;endArrow=none;endFill=0;strokeColor=#000000;strokeWidth=1;fontColor=#000000;" edge="1" parent="1" source="go-kn7gdVx5rD23F8DDE-434" target="go-kn7gdVx5rD23F8DDE-439">
          <mxGeometry relative="1" as="geometry" />
        </mxCell>
        <mxCell id="go-kn7gdVx5rD23F8DDE-433" style="edgeStyle=none;rounded=0;orthogonalLoop=1;jettySize=auto;html=1;exitX=1;exitY=0.5;exitDx=0;exitDy=0;entryX=0;entryY=0.5;entryDx=0;entryDy=0;endArrow=none;endFill=0;strokeColor=#000000;strokeWidth=1;fontColor=#000000;" edge="1" parent="1" source="go-kn7gdVx5rD23F8DDE-434" target="go-kn7gdVx5rD23F8DDE-452">
          <mxGeometry relative="1" as="geometry" />
        </mxCell>
        <mxCell id="go-kn7gdVx5rD23F8DDE-434" value="" style="ellipse;whiteSpace=wrap;html=1;aspect=fixed;strokeColor=#b85450;fillColor=#f8cecc;direction=west;" vertex="1" parent="1">
          <mxGeometry x="1102" y="742.8333333333333" width="30" height="30" as="geometry" />
        </mxCell>
        <mxCell id="go-kn7gdVx5rD23F8DDE-435" style="edgeStyle=none;rounded=0;orthogonalLoop=1;jettySize=auto;html=1;exitX=1;exitY=0.5;exitDx=0;exitDy=0;entryX=0;entryY=0.5;entryDx=0;entryDy=0;endArrow=none;endFill=0;strokeColor=#000000;strokeWidth=1;fontColor=#000000;" edge="1" parent="1" source="go-kn7gdVx5rD23F8DDE-439">
          <mxGeometry relative="1" as="geometry">
            <mxPoint x="997.5" y="775.3333333333333" as="targetPoint" />
          </mxGeometry>
        </mxCell>
        <mxCell id="go-kn7gdVx5rD23F8DDE-436" style="edgeStyle=none;rounded=0;orthogonalLoop=1;jettySize=auto;html=1;exitX=1;exitY=0.5;exitDx=0;exitDy=0;entryX=0;entryY=0.5;entryDx=0;entryDy=0;endArrow=none;endFill=0;strokeColor=#000000;strokeWidth=1;fontColor=#000000;" edge="1" parent="1" source="go-kn7gdVx5rD23F8DDE-439">
          <mxGeometry relative="1" as="geometry">
            <mxPoint x="997.5" y="720.3333333333333" as="targetPoint" />
          </mxGeometry>
        </mxCell>
        <mxCell id="go-kn7gdVx5rD23F8DDE-437" style="edgeStyle=none;rounded=0;orthogonalLoop=1;jettySize=auto;html=1;exitX=1;exitY=0.5;exitDx=0;exitDy=0;entryX=0;entryY=0.5;entryDx=0;entryDy=0;endArrow=none;endFill=0;strokeColor=#000000;strokeWidth=1;fontColor=#000000;" edge="1" parent="1" source="go-kn7gdVx5rD23F8DDE-439">
          <mxGeometry relative="1" as="geometry">
            <mxPoint x="997.5" y="665.3333333333333" as="targetPoint" />
          </mxGeometry>
        </mxCell>
        <mxCell id="go-kn7gdVx5rD23F8DDE-438" style="edgeStyle=none;rounded=0;orthogonalLoop=1;jettySize=auto;html=1;exitX=1;exitY=0.5;exitDx=0;exitDy=0;entryX=0;entryY=0.5;entryDx=0;entryDy=0;endArrow=none;endFill=0;strokeColor=#000000;strokeWidth=1;fontColor=#000000;" edge="1" parent="1" source="go-kn7gdVx5rD23F8DDE-439">
          <mxGeometry relative="1" as="geometry">
            <mxPoint x="997.5" y="605.3333333333333" as="targetPoint" />
          </mxGeometry>
        </mxCell>
        <mxCell id="go-kn7gdVx5rD23F8DDE-439" value="" style="ellipse;whiteSpace=wrap;html=1;aspect=fixed;strokeColor=#b85450;fillColor=#f8cecc;direction=west;" vertex="1" parent="1">
          <mxGeometry x="1036" y="590.3333333333333" width="30" height="30" as="geometry" />
        </mxCell>
        <mxCell id="go-kn7gdVx5rD23F8DDE-440" style="edgeStyle=none;rounded=0;orthogonalLoop=1;jettySize=auto;html=1;exitX=1;exitY=0.5;exitDx=0;exitDy=0;entryX=0;entryY=0.5;entryDx=0;entryDy=0;endArrow=none;endFill=0;strokeColor=#000000;strokeWidth=1;fontColor=#000000;" edge="1" parent="1" source="go-kn7gdVx5rD23F8DDE-444">
          <mxGeometry relative="1" as="geometry">
            <mxPoint x="997.5" y="665.3333333333333" as="targetPoint" />
          </mxGeometry>
        </mxCell>
        <mxCell id="go-kn7gdVx5rD23F8DDE-441" style="edgeStyle=none;rounded=0;orthogonalLoop=1;jettySize=auto;html=1;exitX=1;exitY=0.5;exitDx=0;exitDy=0;entryX=0;entryY=0.5;entryDx=0;entryDy=0;endArrow=none;endFill=0;strokeColor=#000000;strokeWidth=1;fontColor=#000000;" edge="1" parent="1" source="go-kn7gdVx5rD23F8DDE-444">
          <mxGeometry relative="1" as="geometry">
            <mxPoint x="997.5" y="605.3333333333333" as="targetPoint" />
          </mxGeometry>
        </mxCell>
        <mxCell id="go-kn7gdVx5rD23F8DDE-442" style="edgeStyle=none;rounded=0;orthogonalLoop=1;jettySize=auto;html=1;exitX=1;exitY=0.5;exitDx=0;exitDy=0;entryX=0;entryY=0.5;entryDx=0;entryDy=0;endArrow=none;endFill=0;strokeColor=#000000;strokeWidth=1;fontColor=#000000;" edge="1" parent="1" source="go-kn7gdVx5rD23F8DDE-444">
          <mxGeometry relative="1" as="geometry">
            <mxPoint x="997.5" y="720.3333333333333" as="targetPoint" />
          </mxGeometry>
        </mxCell>
        <mxCell id="go-kn7gdVx5rD23F8DDE-443" style="edgeStyle=none;rounded=0;orthogonalLoop=1;jettySize=auto;html=1;exitX=1;exitY=0.5;exitDx=0;exitDy=0;entryX=0;entryY=0.5;entryDx=0;entryDy=0;endArrow=none;endFill=0;strokeColor=#000000;strokeWidth=1;fontColor=#000000;" edge="1" parent="1" source="go-kn7gdVx5rD23F8DDE-444">
          <mxGeometry relative="1" as="geometry">
            <mxPoint x="997.5" y="775.3333333333333" as="targetPoint" />
          </mxGeometry>
        </mxCell>
        <mxCell id="go-kn7gdVx5rD23F8DDE-444" value="" style="ellipse;whiteSpace=wrap;html=1;aspect=fixed;strokeColor=#b85450;fillColor=#f8cecc;direction=west;" vertex="1" parent="1">
          <mxGeometry x="1036" y="650.3333333333333" width="30" height="30" as="geometry" />
        </mxCell>
        <mxCell id="go-kn7gdVx5rD23F8DDE-445" style="edgeStyle=none;rounded=0;orthogonalLoop=1;jettySize=auto;html=1;exitX=1;exitY=0.5;exitDx=0;exitDy=0;entryX=0;entryY=0.5;entryDx=0;entryDy=0;endArrow=none;endFill=0;strokeColor=#000000;strokeWidth=1;fontColor=#000000;" edge="1" parent="1" source="go-kn7gdVx5rD23F8DDE-447">
          <mxGeometry relative="1" as="geometry">
            <mxPoint x="997.5" y="775.3333333333333" as="targetPoint" />
          </mxGeometry>
        </mxCell>
        <mxCell id="go-kn7gdVx5rD23F8DDE-446" style="edgeStyle=none;rounded=0;orthogonalLoop=1;jettySize=auto;html=1;exitX=1;exitY=0.5;exitDx=0;exitDy=0;entryX=0;entryY=0.5;entryDx=0;entryDy=0;endArrow=none;endFill=0;strokeColor=#000000;strokeWidth=1;fontColor=#000000;" edge="1" parent="1" source="go-kn7gdVx5rD23F8DDE-447">
          <mxGeometry relative="1" as="geometry">
            <mxPoint x="997.5" y="665.3333333333333" as="targetPoint" />
          </mxGeometry>
        </mxCell>
        <mxCell id="go-kn7gdVx5rD23F8DDE-447" value="" style="ellipse;whiteSpace=wrap;html=1;aspect=fixed;strokeColor=#b85450;fillColor=#f8cecc;direction=west;" vertex="1" parent="1">
          <mxGeometry x="1036" y="705.3333333333333" width="30" height="30" as="geometry" />
        </mxCell>
        <mxCell id="go-kn7gdVx5rD23F8DDE-448" style="edgeStyle=none;rounded=0;orthogonalLoop=1;jettySize=auto;html=1;exitX=1;exitY=0.5;exitDx=0;exitDy=0;entryX=0;entryY=0.5;entryDx=0;entryDy=0;endArrow=none;endFill=0;strokeColor=#000000;strokeWidth=1;fontColor=#000000;" edge="1" parent="1" source="go-kn7gdVx5rD23F8DDE-452">
          <mxGeometry relative="1" as="geometry">
            <mxPoint x="997.5" y="605.3333333333333" as="targetPoint" />
          </mxGeometry>
        </mxCell>
        <mxCell id="go-kn7gdVx5rD23F8DDE-449" style="edgeStyle=none;rounded=0;orthogonalLoop=1;jettySize=auto;html=1;exitX=1;exitY=0.5;exitDx=0;exitDy=0;entryX=0;entryY=0.5;entryDx=0;entryDy=0;endArrow=none;endFill=0;strokeColor=#000000;strokeWidth=1;fontColor=#000000;" edge="1" parent="1" source="go-kn7gdVx5rD23F8DDE-452">
          <mxGeometry relative="1" as="geometry">
            <mxPoint x="997.5" y="665.3333333333333" as="targetPoint" />
          </mxGeometry>
        </mxCell>
        <mxCell id="go-kn7gdVx5rD23F8DDE-450" style="edgeStyle=none;rounded=0;orthogonalLoop=1;jettySize=auto;html=1;exitX=1;exitY=0.5;exitDx=0;exitDy=0;entryX=0;entryY=0.5;entryDx=0;entryDy=0;endArrow=none;endFill=0;strokeColor=#000000;strokeWidth=1;fontColor=#000000;" edge="1" parent="1" source="go-kn7gdVx5rD23F8DDE-452">
          <mxGeometry relative="1" as="geometry">
            <mxPoint x="997.5" y="720.3333333333333" as="targetPoint" />
          </mxGeometry>
        </mxCell>
        <mxCell id="go-kn7gdVx5rD23F8DDE-451" style="edgeStyle=none;rounded=0;orthogonalLoop=1;jettySize=auto;html=1;exitX=1;exitY=0.5;exitDx=0;exitDy=0;entryX=0;entryY=0.5;entryDx=0;entryDy=0;endArrow=none;endFill=0;strokeColor=#000000;strokeWidth=1;fontColor=#000000;" edge="1" parent="1" source="go-kn7gdVx5rD23F8DDE-452">
          <mxGeometry relative="1" as="geometry">
            <mxPoint x="997.5" y="775.3333333333333" as="targetPoint" />
          </mxGeometry>
        </mxCell>
        <mxCell id="go-kn7gdVx5rD23F8DDE-452" value="" style="ellipse;whiteSpace=wrap;html=1;aspect=fixed;strokeColor=#b85450;fillColor=#f8cecc;direction=west;" vertex="1" parent="1">
          <mxGeometry x="1036" y="760.3333333333333" width="30" height="30" as="geometry" />
        </mxCell>
        <mxCell id="go-kn7gdVx5rD23F8DDE-453" style="edgeStyle=none;rounded=0;orthogonalLoop=1;jettySize=auto;html=1;exitX=0;exitY=0.5;exitDx=0;exitDy=0;entryX=1;entryY=0.5;entryDx=0;entryDy=0;endArrow=none;endFill=0;strokeColor=#000000;strokeWidth=1;fontColor=#000000;" edge="1" parent="1" target="go-kn7gdVx5rD23F8DDE-447">
          <mxGeometry relative="1" as="geometry">
            <mxPoint x="997.5" y="720.3333333333333" as="sourcePoint" />
          </mxGeometry>
        </mxCell>
        <mxCell id="go-kn7gdVx5rD23F8DDE-454" value="&lt;font style=&quot;font-size: 21px&quot;&gt;...&lt;/font&gt;" style="text;html=1;resizable=0;points=[];autosize=1;align=left;verticalAlign=top;spacingTop=-4;fontColor=#000000;" vertex="1" parent="1">
          <mxGeometry x="962" y="585.3333333333333" width="30" height="20" as="geometry" />
        </mxCell>
        <mxCell id="go-kn7gdVx5rD23F8DDE-455" value="&lt;font style=&quot;font-size: 21px&quot;&gt;...&lt;/font&gt;" style="text;html=1;resizable=0;points=[];autosize=1;align=left;verticalAlign=top;spacingTop=-4;fontColor=#000000;" vertex="1" parent="1">
          <mxGeometry x="965" y="644.3333333333333" width="30" height="20" as="geometry" />
        </mxCell>
        <mxCell id="go-kn7gdVx5rD23F8DDE-456" value="&lt;font style=&quot;font-size: 21px&quot;&gt;...&lt;/font&gt;" style="text;html=1;resizable=0;points=[];autosize=1;align=left;verticalAlign=top;spacingTop=-4;fontColor=#000000;" vertex="1" parent="1">
          <mxGeometry x="963" y="701.3333333333333" width="30" height="20" as="geometry" />
        </mxCell>
        <mxCell id="go-kn7gdVx5rD23F8DDE-457" value="&lt;font style=&quot;font-size: 21px&quot;&gt;...&lt;/font&gt;" style="text;html=1;resizable=0;points=[];autosize=1;align=left;verticalAlign=top;spacingTop=-4;fontColor=#000000;" vertex="1" parent="1">
          <mxGeometry x="962" y="753.3333333333333" width="30" height="20" as="geometry" />
        </mxCell>
        <mxCell id="go-kn7gdVx5rD23F8DDE-458" value="" style="shape=curlyBracket;whiteSpace=wrap;html=1;rounded=1;strokeColor=#EA6B66;fillColor=#EA6B66;fontColor=#000000;size=0.4277811686197822;rotation=-179;" vertex="1" parent="1">
          <mxGeometry x="519" y="550.3333333333333" width="20" height="290" as="geometry" />
        </mxCell>
        <mxCell id="go-kn7gdVx5rD23F8DDE-459" value="&lt;font style=&quot;font-size: 16px&quot;&gt;&lt;b&gt;Neural Network K&lt;/b&gt;&lt;/font&gt;" style="text;html=1;resizable=0;points=[];autosize=1;align=left;verticalAlign=top;spacingTop=-4;fontColor=#000000;" vertex="1" parent="1">
          <mxGeometry x="909" y="511.3333333333333" width="150" height="20" as="geometry" />
        </mxCell>
        <mxCell id="go-kn7gdVx5rD23F8DDE-460" value="" style="endArrow=classic;html=1;strokeColor=#FFE599;fontColor=#000000;fillColor=#fff2cc;strokeWidth=2;" edge="1" parent="1">
          <mxGeometry width="50" height="50" relative="1" as="geometry">
            <mxPoint x="740.0000000000002" y="693.3333333333333" as="sourcePoint" />
            <mxPoint x="800.0000000000002" y="693.3333333333333" as="targetPoint" />
          </mxGeometry>
        </mxCell>
        <mxCell id="go-kn7gdVx5rD23F8DDE-461" value="&lt;font style=&quot;font-size: 16px&quot;&gt;&lt;b&gt;Training&lt;/b&gt;&lt;/font&gt;" style="text;html=1;resizable=0;points=[];autosize=1;align=left;verticalAlign=top;spacingTop=-4;fontColor=#000000;" vertex="1" parent="1">
          <mxGeometry x="750" y="513.3333333333333" width="80" height="20" as="geometry" />
        </mxCell>
      </root>
    </mxGraphModel>
  </diagram>
</mxfile>
